<?xml version="1.0" standalone="no"?>
<!DOCTYPE svg PUBLIC "-//W3C//DTD SVG 20010904//EN"
 "http://www.w3.org/TR/2001/REC-SVG-20010904/DTD/svg10.dtd">
<svg version="1.0" xmlns="http://www.w3.org/2000/svg"
 width="1407.000000pt" height="903.000000pt" viewBox="0 0 1407.000000 903.000000"
 preserveAspectRatio="xMidYMid meet">

<g transform="translate(0.000000,903.000000) scale(0.100000,-0.100000)"
fill="#000000" stroke="none">
<path d="M3157 9013 c-4 -3 -7 -55 -7 -115 0 -59 -3 -108 -6 -108 -4 0 -22 9
-41 21 -19 12 -58 23 -91 26 -49 4 -65 1 -112 -24 -43 -23 -59 -39 -80 -78
-23 -45 -25 -61 -25 -170 0 -112 2 -123 27 -166 15 -25 38 -54 52 -62 68 -45
175 -46 239 -3 l34 23 9 -21 c8 -18 19 -21 72 -24 38 -2 69 2 78 9 19 16 21
668 2 687 -13 13 -140 17 -151 5z m-70 -313 c43 -15 58 -51 58 -136 0 -62 -3
-76 -24 -98 -48 -51 -121 -42 -146 19 -31 74 -10 196 37 215 31 12 40 12 75 0z"/>
<path d="M466 8995 c-3 -9 -6 -162 -6 -339 0 -237 3 -325 12 -334 15 -15 352
-16 418 -1 101 23 161 95 162 193 1 60 -18 103 -62 139 l-31 26 25 16 c32 21
56 74 56 123 0 76 -32 126 -105 165 -37 20 -58 22 -251 25 -190 3 -212 2 -218
-13z m365 -134 c32 -26 32 -86 0 -112 -19 -15 -40 -19 -107 -19 l-84 0 0 75 0
75 84 0 c67 0 88 -4 107 -19z m18 -287 c28 -36 27 -79 -4 -109 -22 -23 -32
-25 -115 -25 l-90 0 0 80 0 80 94 0 c90 0 96 -1 115 -26z"/>
<path d="M1292 8821 c-110 -38 -151 -106 -152 -252 0 -83 3 -102 26 -147 47
-94 163 -138 302 -114 137 23 193 100 193 263 0 77 -3 99 -25 142 -15 30 -40
62 -60 75 -77 53 -190 66 -284 33z m165 -125 c27 -24 28 -27 28 -126 0 -99 -1
-102 -28 -126 -16 -13 -41 -24 -57 -24 -16 0 -41 11 -57 24 -27 24 -28 27 -28
126 0 99 1 102 28 126 16 13 41 24 57 24 16 0 41 -11 57 -24z"/>
<path d="M1903 8826 c-54 -17 -100 -50 -118 -86 -28 -54 -23 -60 58 -60 65 0
76 3 97 25 46 49 130 25 130 -38 0 -23 -5 -26 -47 -32 -149 -21 -233 -55 -269
-110 -12 -19 -15 -40 -12 -82 4 -49 10 -61 41 -89 71 -65 197 -72 263 -13 26
24 32 24 36 -3 3 -22 8 -23 78 -23 l75 0 3 180 c2 107 -1 195 -8 216 -15 53
-76 104 -139 118 -67 14 -135 13 -188 -3z m153 -371 c-23 -34 -85 -51 -122
-34 -36 17 -43 57 -16 82 10 9 47 23 83 30 l64 13 3 -34 c2 -19 -4 -44 -12
-57z"/>
<path d="M2365 8818 c-3 -7 -4 -124 -3 -258 l3 -245 80 0 80 0 5 155 c3 85 9
163 13 172 12 24 34 31 117 37 l75 6 0 70 0 70 -67 -1 c-55 0 -74 -5 -107 -27
l-40 -26 -3 27 c-3 26 -5 27 -76 30 -53 2 -74 -1 -77 -10z"/>
<path d="M12917 8154 c-4 -4 -7 -40 -7 -81 l0 -73 75 0 c85 0 83 3 87 -100 l3
-55 70 0 70 0 0 155 0 155 -146 3 c-80 1 -148 -1 -152 -4z"/>
<path d="M12575 7947 c-67 -23 -101 -44 -143 -92 -48 -54 -66 -113 -60 -197
10 -145 111 -244 262 -255 74 -6 154 21 212 71 42 37 41 46 -13 78 -28 16 -30
16 -71 -12 -82 -55 -170 -48 -235 17 -34 33 -57 84 -57 123 0 39 23 90 55 122
64 63 156 72 230 22 45 -30 62 -30 100 0 l30 24 -24 26 c-61 65 -202 100 -286
73z"/>
<path d="M11350 7779 l0 -170 48 3 47 3 3 118 3 117 62 0 c116 0 180 -61 180
-170 0 -120 -59 -166 -230 -178 l-108 -7 -3 -42 -3 -43 113 0 c62 0 130 5 150
10 66 19 130 70 161 130 27 51 29 62 25 141 -3 71 -9 93 -32 132 -53 91 -140
127 -308 127 l-108 0 0 -171z"/>
<path d="M11850 7675 l0 -275 50 0 50 0 2 196 3 195 109 -168 c143 -219 137
-213 203 -213 l53 0 0 270 0 270 -50 0 -50 0 -2 -190 -3 -190 -109 168 c-143
218 -137 212 -203 212 l-53 0 0 -275z"/>
<path d="M4165 7851 c-87 -21 -135 -80 -135 -165 l0 -45 -47 -3 -48 -3 0 -60
0 -60 47 -3 48 -3 2 -192 3 -192 75 0 75 0 3 192 2 192 73 3 72 3 3 39 c2 22
1 50 -2 63 -6 21 -11 23 -76 23 l-70 0 0 28 c0 43 26 60 95 64 l60 3 3 39 c2
22 1 50 -2 63 -6 22 -11 23 -79 22 -39 -1 -85 -4 -102 -8z"/>
<path d="M796 7815 c-3 -9 -6 -62 -6 -117 l0 -100 -34 22 c-67 41 -170 36
-238 -12 -15 -10 -39 -43 -54 -74 -24 -49 -27 -67 -27 -153 0 -121 28 -194 90
-235 70 -46 170 -46 237 -1 l34 23 6 -24 c6 -24 9 -25 79 -22 l72 3 0 350 0
350 -76 3 c-63 2 -78 0 -83 -13z m-27 -329 c20 -21 23 -33 23 -101 0 -61 -4
-83 -19 -104 -40 -53 -121 -48 -150 9 -16 32 -16 148 0 180 27 54 100 62 146
16z"/>
<path d="M1937 7824 c-4 -4 -7 -47 -7 -96 l0 -88 -43 0 c-53 0 -67 -13 -67
-61 0 -62 7 -69 61 -69 l49 0 0 -117 c0 -143 10 -182 55 -222 45 -39 97 -53
188 -49 l72 3 3 62 c3 70 3 70 -88 75 -60 4 -70 25 -70 150 l0 97 73 3 72 3 0
60 0 60 -72 3 -72 3 -3 92 -3 92 -70 3 c-39 1 -74 0 -78 -4z"/>
<path d="M1222 7631 c-108 -37 -157 -118 -157 -256 1 -122 37 -189 130 -238
32 -17 58 -21 130 -22 81 0 95 3 145 30 52 29 104 87 97 109 -2 6 -38 12 -81
14 -70 3 -80 1 -107 -23 -17 -14 -39 -25 -49 -25 -49 0 -90 41 -90 90 0 19 8
20 158 20 86 0 163 4 171 9 20 13 9 126 -17 178 -58 114 -194 161 -330 114z
m156 -114 c12 -13 25 -37 28 -55 l7 -32 -87 0 -86 0 0 30 c0 69 91 107 138 57z"/>
<path d="M2473 7636 c-54 -17 -100 -50 -118 -86 -28 -54 -23 -60 58 -60 65 0
76 3 97 25 46 49 130 25 130 -38 0 -23 -5 -26 -47 -32 -149 -21 -233 -55 -269
-110 -12 -19 -15 -40 -12 -82 4 -49 10 -61 41 -89 71 -65 197 -72 263 -13 26
24 32 24 36 -3 3 -22 8 -23 78 -23 l75 0 3 180 c2 107 -1 195 -8 216 -15 53
-76 104 -139 118 -67 14 -135 13 -188 -3z m153 -371 c-23 -34 -85 -51 -122
-34 -36 17 -43 57 -16 82 10 9 47 23 83 30 l64 13 3 -34 c2 -19 -4 -44 -12
-57z"/>
<path d="M3517 7634 c-63 -20 -120 -76 -142 -144 -24 -71 -17 -198 13 -257 72
-140 311 -167 429 -48 24 23 43 52 43 64 0 20 -5 21 -85 21 -64 0 -87 -3 -91
-14 -8 -21 -60 -39 -89 -32 -27 7 -50 36 -60 79 l-7 27 159 0 c194 0 199 2
189 81 -9 75 -46 151 -89 184 -70 53 -175 68 -270 39z m158 -119 c16 -15 25
-36 25 -55 l0 -30 -86 0 -86 0 6 32 c15 75 91 103 141 53z"/>
<path d="M4530 7630 c-63 -21 -120 -76 -120 -115 0 -24 2 -25 70 -25 60 0 72
3 94 25 18 18 36 25 64 25 44 0 59 -13 68 -57 l6 -29 -96 -16 c-109 -18 -195
-55 -221 -95 -27 -40 -30 -102 -7 -143 22 -42 108 -90 161 -90 49 0 105 17
132 39 23 18 24 18 34 -3 9 -19 19 -21 85 -21 l75 0 3 173 c1 105 -2 189 -9
214 -30 113 -191 169 -339 118z m176 -324 c-9 -48 -48 -81 -97 -81 -72 0 -103
65 -46 97 31 17 141 36 146 26 1 -5 0 -24 -3 -42z"/>
<path d="M5123 7640 c-82 -19 -143 -84 -143 -152 0 -85 46 -125 181 -159 111
-27 142 -55 103 -93 -24 -24 -84 -20 -127 9 -32 22 -46 26 -100 23 -58 -3 -62
-5 -65 -29 -4 -32 36 -74 98 -103 54 -25 201 -29 263 -7 91 31 136 105 114
183 -19 62 -64 93 -182 122 -116 29 -146 54 -109 90 23 23 73 19 119 -9 39
-24 103 -33 139 -19 29 11 18 50 -23 87 -63 56 -173 80 -268 57z"/>
<path d="M2935 7628 c-3 -7 -4 -124 -3 -258 l3 -245 80 0 80 0 5 155 c3 85 9
163 13 172 12 24 34 31 117 37 l75 6 0 70 0 70 -67 -1 c-55 0 -74 -5 -107 -27
l-40 -26 -3 27 c-3 26 -5 27 -76 30 -53 2 -74 -1 -77 -10z"/>
<path d="M492 6849 c-65 -32 -97 -87 -97 -164 0 -78 33 -132 97 -164 l44 -21
2404 0 2404 0 44 21 c64 32 97 86 97 164 0 78 -33 132 -97 164 l-44 21 -2405
0 -2404 0 -43 -21z m4894 -35 c51 -38 69 -71 69 -129 0 -58 -18 -91 -69 -129
l-27 -21 -2392 -3 c-1316 -1 -2407 0 -2425 3 -74 13 -132 102 -118 179 8 43
49 94 91 112 25 11 451 13 2437 11 l2407 -2 27 -21z"/>
<path d="M2102 6778 c-7 -7 -12 -18 -12 -25 0 -6 -8 -17 -17 -22 -17 -10 -17
-12 0 -25 12 -9 17 -27 17 -60 0 -39 3 -46 20 -46 17 0 20 7 20 50 0 47 2 50
25 50 23 0 25 -3 25 -50 0 -43 3 -50 20 -50 18 0 20 7 20 64 l0 65 -42 3 c-24
2 -43 8 -43 13 0 6 19 11 43 13 28 2 42 8 42 18 0 18 -100 20 -118 2z"/>
<path d="M3510 6775 c0 -8 9 -15 20 -15 11 0 20 7 20 15 0 8 -9 15 -20 15 -11
0 -20 -7 -20 -15z"/>
<path d="M3740 6775 c0 -8 9 -15 20 -15 11 0 20 7 20 15 0 8 -9 15 -20 15 -11
0 -20 -7 -20 -15z"/>
<path d="M1550 6754 c0 -23 -3 -25 -27 -20 -34 7 -49 -1 -62 -36 -10 -27 -5
-64 11 -85 6 -7 33 -12 64 -12 l54 1 0 89 c0 82 -1 89 -20 89 -15 0 -20 -7
-20 -26z m-5 -89 c0 -23 -4 -30 -20 -30 -15 0 -21 8 -23 33 -3 30 -1 33 20 30
18 -2 23 -9 23 -33z"/>
<path d="M3900 6755 c0 -22 -3 -25 -24 -19 -51 13 -86 -64 -51 -113 12 -18 25
-21 70 -21 l55 1 0 88 c0 88 0 89 -25 89 -20 0 -25 -5 -25 -25z m4 -71 c8 -20
-12 -56 -27 -51 -7 2 -13 18 -15 35 -3 26 0 32 16 32 11 0 23 -7 26 -16z"/>
<path d="M4220 6755 c0 -22 -3 -25 -24 -19 -34 8 -66 -26 -66 -69 0 -47 24
-65 88 -65 l52 0 0 89 c0 88 0 89 -25 89 -20 0 -25 -5 -25 -25z m0 -84 c0 -36
-17 -49 -37 -28 -20 19 -8 57 18 57 14 0 19 -7 19 -29z"/>
<path d="M1650 6727 c-31 -16 -41 -85 -15 -111 23 -23 78 -20 101 5 l19 21
-44 -4 c-29 -2 -45 1 -48 10 -3 8 9 12 41 12 37 0 46 3 46 18 0 23 -10 37 -37
51 -27 14 -32 14 -63 -2z m54 -32 c4 -11 -1 -15 -19 -15 -24 0 -32 10 -18 23
11 12 31 8 37 -8z"/>
<path d="M1789 6721 c-29 -24 -18 -50 27 -64 36 -12 37 -13 30 -25 -4 -7 -17
-6 -36 1 -34 13 -49 4 -30 -18 13 -15 65 -20 94 -9 9 4 16 18 16 35 0 25 -5
30 -40 39 -50 13 -43 33 8 25 l37 -6 -24 20 c-29 26 -52 26 -82 2z"/>
<path d="M1939 6719 l-24 -20 43 5 c33 5 42 3 42 -9 0 -10 -10 -15 -28 -15
-39 0 -67 -31 -53 -59 9 -17 21 -20 66 -20 l55 1 0 59 c0 55 -2 60 -26 69 -37
14 -49 13 -75 -11z m61 -68 c0 -15 -19 -23 -38 -16 -14 5 -14 7 -2 15 19 12
40 13 40 1z"/>
<path d="M2270 6722 c-30 -24 -32 -88 -4 -109 26 -19 78 -16 97 5 20 22 22 71
5 95 -21 27 -70 32 -98 9z m60 -26 c6 -8 10 -25 8 -38 -4 -32 -42 -32 -46 0
-7 46 14 66 38 38z"/>
<path d="M2610 6727 c-31 -16 -41 -85 -15 -111 23 -23 78 -20 101 5 l19 21
-44 -4 c-29 -2 -45 1 -48 10 -3 8 9 12 41 12 37 0 46 3 46 18 0 23 -10 37 -37
51 -27 14 -32 14 -63 -2z m54 -32 c4 -11 -1 -15 -19 -15 -24 0 -32 10 -18 23
11 12 31 8 37 -8z"/>
<path d="M2749 6721 c-20 -16 -22 -23 -13 -38 6 -10 25 -22 43 -27 45 -13 39
-29 -9 -21 -24 4 -40 3 -40 -3 0 -20 30 -33 66 -30 69 6 73 63 5 80 -43 12
-30 28 17 22 l37 -5 -24 20 c-29 26 -52 27 -82 2z"/>
<path d="M2942 6731 c-7 -4 -24 -6 -38 -3 l-24 4 0 -91 c0 -84 1 -91 20 -91
15 0 20 7 20 29 0 28 2 29 33 24 42 -6 62 15 62 69 0 53 -37 82 -73 59z m26
-63 c-4 -42 -34 -51 -44 -14 -7 31 1 46 27 46 17 0 20 -6 17 -32z"/>
<path d="M3070 6727 c-31 -16 -41 -85 -15 -111 21 -20 79 -21 99 0 19 19 21
87 3 102 -22 18 -61 23 -87 9z m48 -26 c22 -13 11 -66 -13 -66 -21 0 -32 32
-21 61 6 16 15 17 34 5z"/>
<path d="M3262 6731 c-7 -4 -24 -6 -38 -3 -23 4 -24 3 -24 -62 0 -59 2 -66 20
-66 16 0 20 7 20 34 0 47 9 66 31 66 16 0 19 -8 19 -50 0 -47 2 -50 25 -50 23
0 25 3 25 50 0 68 -38 107 -78 81z"/>
<path d="M3392 6729 c-35 -14 -27 -59 13 -72 37 -12 39 -13 30 -26 -4 -8 -12
-8 -26 0 -11 5 -27 9 -36 7 -29 -5 14 -38 51 -38 70 0 90 56 26 76 -48 16 -53
37 -6 29 43 -8 50 10 10 25 -30 12 -32 12 -62 -1z"/>
<path d="M3999 6720 l-24 -21 43 6 c28 5 42 3 42 -4 0 -12 -7 -15 -52 -25 -15
-3 -30 -15 -33 -27 -11 -33 11 -48 71 -48 l54 1 0 53 c0 44 -4 57 -22 69 -30
21 -51 20 -79 -4z m59 -72 c-5 -15 -48 -24 -48 -10 0 14 12 22 33 22 10 0 17
-5 15 -12z"/>
<path d="M4316 6719 c-48 -38 -24 -119 35 -119 35 0 69 16 69 31 0 7 -14 8
-40 4 -33 -6 -40 -4 -40 9 0 12 10 16 40 16 36 0 40 3 40 24 0 26 -33 56 -61
56 -9 0 -28 -9 -43 -21z m62 -26 c2 -8 -5 -13 -17 -13 -12 0 -21 6 -21 16 0
18 31 15 38 -3z"/>
<path d="M2462 6667 c3 -55 5 -62 25 -65 20 -3 22 2 25 45 3 41 6 48 26 51 12
2 22 9 22 17 0 9 -15 13 -50 13 l-51 1 3 -62z"/>
<path d="M3510 6665 c0 -58 2 -65 20 -65 18 0 20 7 20 65 0 58 -2 65 -20 65
-18 0 -20 -7 -20 -65z"/>
<path d="M3586 6708 c33 -106 71 -139 92 -80 6 15 17 44 26 65 16 36 16 37 -4
37 -13 0 -25 -12 -36 -37 l-17 -38 -15 38 c-10 25 -21 37 -34 37 -16 0 -18 -4
-12 -22z"/>
<path d="M3740 6665 c0 -58 2 -65 20 -65 18 0 20 7 20 65 0 58 -2 65 -20 65
-18 0 -20 -7 -20 -65z"/>
<path d="M6875 5683 c-31 -8 -45 -23 -45 -50 0 -16 -7 -27 -20 -30 -11 -3 -20
-14 -20 -24 0 -12 7 -19 20 -19 18 0 20 -7 20 -75 0 -73 1 -75 25 -75 24 0 25
2 25 75 0 73 1 75 25 75 18 0 25 5 25 20 0 15 -7 20 -25 20 -39 0 -34 39 5 47
21 4 30 11 28 22 -3 17 -29 23 -63 14z"/>
<path d="M4340 5540 l0 -130 70 0 c80 0 113 12 129 47 16 34 14 50 -8 72 -17
17 -18 21 -5 32 20 17 17 66 -6 89 -17 17 -33 20 -100 20 l-80 0 0 -130z m138
59 c3 -28 -15 -39 -65 -39 -20 0 -23 5 -23 36 l0 35 43 -3 c37 -3 42 -6 45
-29z m-7 -79 c21 -12 25 -40 7 -58 -7 -7 -29 -12 -50 -12 -38 0 -38 0 -38 40
0 38 2 40 31 40 17 0 39 -5 50 -10z"/>
<path d="M5320 5630 c0 -38 -1 -40 -21 -30 -27 15 -76 3 -94 -23 -22 -32 -19
-109 6 -141 22 -28 64 -35 100 -16 13 7 19 7 19 0 0 -5 11 -10 25 -10 l25 0 0
130 0 130 -30 0 c-28 0 -30 -2 -30 -40z m0 -95 c14 -36 -2 -79 -30 -83 -47 -7
-67 61 -30 98 23 23 48 17 60 -15z"/>
<path d="M5640 5629 c0 -35 -2 -40 -17 -34 -59 25 -106 1 -117 -60 -9 -44 9
-102 34 -115 26 -14 73 -13 88 2 9 9 12 9 12 0 0 -7 11 -12 25 -12 l25 0 0
130 0 130 -25 0 c-23 0 -25 -4 -25 -41z m-15 -75 c37 -38 0 -124 -42 -98 -26
16 -30 84 -7 101 23 17 29 16 49 -3z"/>
<path d="M6060 5635 c0 -28 -4 -35 -20 -35 -13 0 -20 -7 -20 -20 0 -13 7 -20
20 -20 18 0 20 -7 20 -55 0 -67 22 -95 75 -95 28 0 35 4 35 20 0 13 -7 20 -18
20 -29 0 -42 21 -42 67 0 41 1 43 30 43 23 0 30 5 30 19 0 14 -8 21 -27 23
-23 2 -29 8 -31 36 -3 26 -7 32 -28 32 -21 0 -24 -5 -24 -35z"/>
<path d="M4632 5600 c-31 -13 -55 -74 -47 -117 9 -48 40 -73 92 -73 63 0 93
32 93 97 -1 54 -14 77 -54 93 -32 12 -53 12 -84 0z m78 -49 c15 -28 12 -77 -4
-91 -8 -6 -25 -10 -38 -8 -19 2 -23 10 -26 46 -2 24 2 50 9 58 16 20 46 17 59
-5z"/>
<path d="M4848 5594 c-35 -19 -37 -44 -3 -44 14 0 25 5 25 11 0 17 55 6 58
-12 2 -13 -8 -18 -43 -24 -48 -7 -85 -33 -85 -60 0 -41 87 -74 117 -44 8 8 13
8 17 0 4 -6 16 -11 27 -11 17 0 19 7 19 78 0 87 -4 96 -43 111 -37 14 -56 13
-89 -5z m82 -114 c0 -26 -34 -44 -60 -30 -22 12 -17 37 8 43 38 10 52 7 52
-13z"/>
<path d="M5794 5600 c-57 -23 -74 -121 -29 -165 37 -38 133 -29 150 12 4 12
-2 14 -27 11 -18 -3 -40 -8 -49 -12 -16 -7 -49 16 -49 35 0 5 29 9 65 9 l65 0
0 33 c0 58 -71 101 -126 77z m66 -45 c17 -20 4 -35 -30 -35 -16 0 -32 5 -35
10 -9 15 13 40 35 40 10 0 23 -7 30 -15z"/>
<path d="M6260 5603 c-21 -8 -50 -34 -50 -45 0 -11 48 -10 55 2 3 6 17 10 31
10 17 0 24 -6 24 -19 0 -14 -10 -20 -37 -24 -75 -12 -107 -62 -65 -100 22 -20
72 -22 91 -4 11 10 14 10 18 0 3 -7 16 -13 29 -13 23 0 24 2 24 74 0 55 -4 79
-17 95 -18 22 -75 35 -103 24z m60 -123 c0 -10 -9 -24 -19 -30 -39 -20 -71 17
-33 39 28 17 52 13 52 -9z"/>
<path d="M6634 5600 c-57 -23 -74 -121 -29 -165 37 -38 133 -29 150 12 4 12
-2 14 -27 11 -18 -3 -40 -8 -49 -12 -16 -7 -49 16 -49 35 0 5 29 9 65 9 l65 0
0 33 c0 58 -71 101 -126 77z m66 -45 c17 -20 4 -35 -30 -35 -16 0 -32 5 -35
10 -9 15 13 40 35 40 10 0 23 -7 30 -15z"/>
<path d="M7010 5603 c-21 -8 -50 -34 -50 -45 0 -11 48 -10 55 2 10 16 52 12
59 -5 6 -16 2 -19 -49 -30 -46 -10 -75 -33 -75 -59 0 -46 62 -72 111 -46 13 7
19 7 19 0 0 -5 11 -10 25 -10 24 0 25 2 25 74 0 55 -4 79 -17 95 -18 22 -75
35 -103 24z m70 -109 c0 -13 -21 -42 -35 -48 -37 -14 -62 23 -27 43 18 11 62
15 62 5z"/>
<path d="M7213 5600 c-60 -25 -45 -91 27 -110 21 -6 42 -15 46 -21 9 -16 -17
-30 -41 -23 -45 13 -75 16 -75 6 0 -20 44 -42 85 -42 49 0 85 23 85 54 0 29
-21 48 -69 61 -43 13 -56 45 -17 45 14 0 28 -4 31 -10 9 -15 45 -12 45 4 0 32
-73 55 -117 36z"/>
<path d="M5032 5507 l3 -92 28 -3 27 -3 0 65 c0 69 11 86 59 86 14 0 21 6 21
19 0 17 -8 19 -70 19 l-71 0 3 -91z"/>
<path d="M6430 5505 c0 -95 0 -95 25 -95 24 0 25 2 25 65 0 68 12 85 59 85 14
0 21 6 21 20 0 15 -7 20 -28 20 -15 0 -33 -5 -40 -12 -9 -9 -12 -9 -12 0 0 7
-11 12 -25 12 -25 0 -25 0 -25 -95z"/>
<path d="M8326 5054 c-14 -13 -16 -50 -16 -244 0 -194 2 -231 16 -244 14 -14
71 -16 484 -16 413 0 470 2 484 16 24 23 24 465 0 488 -14 14 -71 16 -484 16
-413 0 -470 -2 -484 -16z m494 -209 c0 -20 5 -25 25 -25 14 0 25 -4 25 -10 0
-5 -11 -10 -25 -10 -21 0 -25 -5 -25 -30 0 -20 -5 -30 -15 -30 -10 0 -15 10
-15 30 0 25 -4 30 -25 30 -14 0 -25 5 -25 10 0 6 11 10 25 10 20 0 25 5 25 25
0 16 6 25 15 25 9 0 15 -9 15 -25z"/>
<path d="M5563 4873 c-7 -2 -13 -11 -13 -19 0 -8 -6 -14 -12 -14 -10 0 -10 -2
-1 -8 6 -4 13 -25 16 -47 l4 -40 1 42 c2 30 7 43 20 46 16 4 16 5 0 6 -10 0
-18 5 -18 11 0 5 8 14 18 19 17 11 7 13 -15 4z"/>
<path d="M4462 4808 l1 -63 6 50 6 49 32 -49 33 -50 -2 65 c-1 63 -1 64 -7 17
l-6 -47 -28 45 c-16 25 -31 45 -33 45 -2 0 -3 -28 -2 -62z"/>
<path d="M5039 4853 c-1 -10 -2 -35 -3 -56 -2 -21 1 -40 6 -43 4 -3 8 22 8 55
0 34 -2 61 -5 61 -3 0 -5 -8 -6 -17z"/>
<path d="M5220 4855 c-6 -59 8 -105 34 -105 6 0 3 5 -6 11 -11 6 -18 22 -18
39 0 19 6 30 18 33 15 4 15 5 0 6 -9 0 -19 9 -21 19 -4 15 -5 14 -7 -3z"/>
<path d="M6460 4810 l0 -60 38 2 c36 1 36 1 5 5 -27 4 -33 9 -33 28 0 19 6 24
33 28 l32 4 -32 1 c-25 2 -33 7 -33 21 0 15 8 21 33 24 31 4 31 4 -5 5 l-38 2
0 -60z"/>
<path d="M6571 4858 c-1 -10 -7 -18 -13 -18 -10 0 -10 -2 -1 -8 6 -4 13 -23
15 -42 2 -22 8 -35 18 -36 9 0 10 1 3 3 -7 3 -13 20 -13 39 0 20 5 34 13 34 8
0 9 3 1 8 -6 4 -14 14 -17 22 -4 12 -6 11 -6 -2z"/>
<path d="M6991 4858 c-1 -10 -7 -18 -13 -18 -10 0 -10 -2 -1 -8 6 -4 13 -23
15 -41 2 -19 9 -36 16 -37 7 -1 8 0 2 3 -15 7 -13 73 3 73 8 0 9 3 1 8 -6 4
-14 14 -17 22 -4 12 -6 11 -6 -2z"/>
<path d="M4583 4825 c-3 -9 -3 -19 1 -22 3 -4 6 1 6 11 0 12 7 16 23 14 33 -5
37 -55 5 -67 -14 -6 -17 -10 -7 -10 21 -1 39 19 39 44 0 40 -53 64 -67 30z"/>
<path d="M4681 4791 l2 -46 6 40 c5 31 10 40 26 40 16 0 21 -9 26 -40 l6 -40
2 43 c0 23 -2 43 -6 44 -5 0 -20 2 -35 3 -27 2 -28 0 -27 -44z"/>
<path d="M4772 4834 c11 -3 18 -19 21 -42 l4 -37 -1 40 c-1 32 -5 40 -21 42
-15 1 -15 0 -3 -3z"/>
<path d="M4842 4828 c-15 -15 -16 -50 0 -66 14 -14 44 -16 52 -4 2 4 -7 8 -21
7 -39 0 -40 23 -1 28 l33 4 -33 1 c-22 1 -32 6 -30 15 6 17 39 21 50 5 8 -10
9 -10 5 2 -5 19 -39 24 -55 8z"/>
<path d="M4982 4828 c-26 -26 -7 -79 28 -77 9 0 6 4 -7 9 -16 6 -23 18 -23 35
0 17 7 29 23 35 13 5 16 9 7 9 -9 1 -21 -4 -28 -11z"/>
<path d="M5087 4833 c-3 -5 8 -8 23 -8 15 0 26 3 23 8 -2 4 -13 7 -23 7 -10 0
-21 -3 -23 -7z"/>
<path d="M5318 4833 c20 -4 23 -10 20 -38 -1 -19 1 -37 5 -42 5 -4 7 12 5 37
-3 40 -6 45 -28 47 -23 1 -23 1 -2 -4z"/>
<path d="M5380 4795 c0 -27 2 -46 4 -44 8 8 10 78 3 85 -4 4 -7 -14 -7 -41z"/>
<path d="M5452 4828 c-15 -15 -16 -50 0 -66 14 -14 44 -16 52 -4 2 4 -7 8 -21
7 -39 0 -40 23 -1 28 l33 4 -33 1 c-22 1 -32 6 -30 15 6 17 39 21 50 5 8 -10
9 -10 5 2 -5 19 -39 24 -55 8z"/>
<path d="M5617 4833 c-3 -5 8 -8 23 -8 15 0 26 3 23 8 -2 4 -13 7 -23 7 -10 0
-21 -3 -23 -7z"/>
<path d="M6633 4795 c0 -27 2 -38 4 -22 2 15 2 37 0 50 -2 12 -4 0 -4 -28z"/>
<path d="M6674 4813 c-8 -32 6 -58 32 -58 10 0 22 -9 26 -20 3 -11 6 9 6 45
-1 54 -2 58 -7 25 -5 -31 -10 -40 -26 -40 -31 0 -34 52 -3 64 l23 10 -22 0
c-16 1 -24 -6 -29 -26z"/>
<path d="M6838 4799 c-2 -22 0 -43 4 -45 4 -3 8 15 8 40 0 57 -7 60 -12 5z"/>
<path d="M6908 4833 c7 -3 16 -2 19 1 4 3 -2 6 -13 5 -11 0 -14 -3 -6 -6z"/>
<path d="M7056 4832 c-3 -5 6 -7 20 -4 24 4 26 2 23 -31 -2 -20 0 -39 4 -44 5
-4 7 12 5 37 -2 37 -7 46 -25 48 -11 2 -24 -1 -27 -6z"/>
<path d="M6881 4800 c-1 -29 15 -50 39 -49 9 0 6 4 -7 9 -33 13 -28 30 7 30
22 0 30 5 29 18 0 10 -3 12 -6 5 -2 -7 -15 -13 -28 -13 -13 0 -26 6 -28 13 -3
6 -6 1 -6 -13z"/>
<path d="M5284 4785 c-8 -19 4 -35 24 -34 15 1 15 2 0 6 -21 5 -24 29 -5 36 9
4 9 6 -1 6 -7 1 -15 -6 -18 -14z"/>
<path d="M4581 4774 c0 -11 3 -14 6 -6 3 7 2 16 -1 19 -3 4 -6 -2 -5 -13z"/>
<path d="M7044 4770 c1 -8 10 -16 21 -17 15 -1 15 0 3 3 -9 3 -19 11 -21 17
-2 7 -3 5 -3 -3z"/>
<path d="M5082 4764 c9 -9 21 -15 27 -13 6 2 -2 10 -17 17 -25 11 -25 11 -10
-4z"/>
<path d="M5612 4764 c9 -9 21 -15 27 -13 6 2 -2 10 -17 17 -25 11 -25 11 -10
-4z"/>
<path d="M6783 4770 c2 -8 12 -16 23 -17 13 -2 15 -1 4 4 -8 3 -19 11 -23 17
-6 7 -7 6 -4 -4z"/>
<path d="M6283 4123 c-7 -2 -13 -13 -13 -24 0 -10 -6 -19 -12 -19 -10 0 -10
-2 -1 -8 6 -4 13 -28 16 -52 l4 -45 1 47 c2 35 6 48 20 51 16 4 16 5 0 6 -22
1 -24 19 -3 27 8 4 15 10 15 15 0 10 -8 10 -27 2z"/>
<path d="M4460 4050 c0 -40 4 -70 10 -70 6 0 10 13 10 29 0 26 4 30 33 34 l32
4 -32 1 c-28 2 -33 6 -33 27 0 22 4 25 35 25 19 0 35 5 35 10 0 6 -20 10 -45
10 l-45 0 0 -70z"/>
<path d="M5170 4050 c0 -40 4 -70 10 -70 6 0 10 30 10 70 0 40 -4 70 -10 70
-6 0 -10 -30 -10 -70z"/>
<path d="M5381 4103 c-1 -13 -7 -23 -13 -23 -10 0 -10 -2 -1 -8 6 -4 13 -25
15 -47 3 -34 7 -40 28 -43 l25 -3 -22 16 c-28 20 -32 75 -6 75 15 0 15 1 1 13
-9 6 -18 19 -21 27 -4 10 -6 7 -6 -7z"/>
<path d="M5680 4101 c0 -15 -8 -21 -31 -23 -41 -4 -57 -28 -43 -65 8 -24 15
-28 47 -28 l37 -1 0 68 c0 37 -2 68 -5 68 -3 0 -5 -9 -5 -19z m-4 -57 c8 -31
-14 -58 -39 -48 -17 6 -24 54 -10 67 16 16 43 6 49 -19z"/>
<path d="M5890 4101 c0 -11 -6 -22 -12 -24 -10 -4 -10 -6 0 -6 6 -1 12 -14 12
-30 0 -44 10 -61 34 -61 19 1 19 2 4 11 -12 6 -18 22 -18 44 0 24 5 35 18 38
16 4 16 5 0 6 -11 1 -18 9 -18 21 0 11 -4 20 -10 20 -5 0 -10 -9 -10 -19z"/>
<path d="M8090 4080 c-18 -18 -20 -33 -20 -180 0 -147 2 -162 20 -180 19 -19
33 -20 470 -20 437 0 451 1 470 20 18 18 20 33 20 180 0 147 -2 162 -20 180
-19 19 -33 20 -470 20 -437 0 -451 -1 -470 -20z m221 -120 c23 -13 26 -40 4
-40 -8 0 -15 5 -15 10 0 19 -39 10 -45 -10 -9 -30 4 -60 26 -60 10 0 19 5 19
10 0 6 7 10 15 10 8 0 15 -7 15 -15 0 -19 -46 -38 -72 -29 -37 11 -46 85 -16
121 13 16 42 17 69 3z m367 -58 c2 -51 0 -62 -13 -62 -12 0 -15 13 -15 66 0
48 3 65 13 62 7 -3 13 -28 15 -66z m142 53 c0 -8 -7 -15 -15 -15 -8 0 -15 7
-15 15 0 8 7 15 15 15 8 0 15 -7 15 -15z m-409 -25 c29 -16 26 -77 -5 -91 -37
-17 -66 3 -66 46 0 46 31 66 71 45z m113 -6 c21 -20 22 -84 2 -84 -9 0 -16 12
-18 33 -2 20 -8 32 -18 32 -10 0 -16 -12 -18 -32 -5 -53 -32 -43 -32 11 0 38
3 45 23 49 40 8 45 7 61 -9z m97 6 c30 -17 23 -33 -11 -25 -27 6 -30 4 -30
-19 0 -26 25 -37 32 -14 5 13 28 2 28 -13 0 -5 -11 -14 -24 -20 -36 -17 -66 3
-66 44 0 51 28 69 71 47z m99 -35 c0 -24 5 -35 15 -35 10 0 15 11 15 35 0 24
5 35 15 35 11 0 15 -12 15 -44 0 -41 -2 -44 -31 -50 -42 -8 -59 8 -59 55 0 28
4 39 15 39 10 0 15 -11 15 -35z m100 -10 c0 -33 -4 -45 -15 -45 -11 0 -15 12
-15 45 0 33 4 45 15 45 11 0 15 -12 15 -45z m80 35 c0 -5 -7 -10 -15 -10 -10
0 -15 -11 -15 -35 0 -24 -5 -35 -15 -35 -11 0 -15 12 -15 45 0 43 1 45 30 45
17 0 30 -4 30 -10z"/>
<path d="M8370 3885 c0 -26 24 -35 32 -12 7 18 -2 37 -18 37 -8 0 -14 -10 -14
-25z"/>
<path d="M4575 4070 c-4 -6 6 -7 25 -4 23 5 30 3 30 -10 0 -10 -8 -16 -24 -16
-28 0 -51 -24 -42 -45 4 -10 18 -14 46 -13 38 1 40 3 40 34 0 18 -3 39 -6 48
-7 18 -59 22 -69 6z m53 -52 c-6 -16 -36 -34 -44 -26 -3 4 -4 14 -1 23 7 17
51 21 45 3z"/>
<path d="M4703 4071 l28 -6 -30 -35 c-17 -19 -30 -38 -31 -42 0 -5 21 -7 48
-6 36 1 39 2 15 5 -18 2 -33 7 -33 9 0 3 11 20 25 38 14 18 25 36 25 39 0 4
-17 6 -37 6 -35 -1 -36 -2 -10 -8z"/>
<path d="M4787 4074 c-13 -13 -7 -71 7 -84 18 -15 58 -10 64 8 3 11 0 12 -17
2 -17 -9 -26 -9 -37 1 -24 20 -16 29 26 29 37 0 39 2 31 23 -8 22 -58 36 -74
21z m61 -21 c2 -9 -7 -13 -27 -13 -30 0 -39 9 -24 24 11 10 46 3 51 -11z"/>
<path d="M4890 4030 c0 -27 5 -50 10 -50 6 0 10 18 10 40 0 33 4 42 23 50 20
8 19 9 -10 9 -33 1 -33 1 -33 -49z"/>
<path d="M5015 4071 c-4 -7 5 -9 25 -5 23 5 30 3 30 -10 0 -9 -8 -16 -19 -16
-11 0 -27 -7 -36 -16 -23 -23 -2 -44 42 -41 34 2 34 2 31 47 -3 42 -5 45 -35
48 -17 2 -34 -2 -38 -7z m55 -61 c-11 -21 -35 -27 -45 -10 -10 16 4 30 31 30
22 0 23 -3 14 -20z"/>
<path d="M5220 4030 c0 -27 5 -50 10 -50 6 0 10 23 10 50 0 28 -4 50 -10 50
-5 0 -10 -22 -10 -50z"/>
<path d="M5267 4067 c-7 -18 2 -30 36 -45 36 -16 25 -35 -16 -27 -26 5 -29 4
-14 -5 27 -17 62 -8 65 16 2 16 -4 24 -27 32 -41 15 -41 37 -1 28 19 -3 29 -2
25 4 -9 15 -62 12 -68 -3z"/>
<path d="M5455 4070 c-4 -6 6 -7 25 -4 23 5 30 3 30 -10 0 -10 -8 -16 -24 -16
-28 0 -51 -24 -42 -45 4 -10 18 -14 46 -13 38 1 40 3 40 34 0 18 -3 39 -6 48
-7 18 -59 22 -69 6z m53 -52 c-6 -16 -36 -34 -44 -26 -3 4 -4 14 -1 23 7 17
51 21 45 3z"/>
<path d="M5728 4055 c-24 -53 36 -103 72 -60 14 17 0 21 -17 4 -15 -15 -43 -4
-43 16 0 11 10 15 35 15 19 0 35 4 35 9 0 47 -62 59 -82 16z m66 0 c4 -11 -2
-15 -24 -15 -29 0 -38 9 -23 23 12 12 41 7 47 -8z"/>
<path d="M5965 4071 c-4 -7 5 -9 25 -5 23 5 30 3 30 -10 0 -9 -8 -16 -19 -16
-11 0 -27 -7 -36 -16 -23 -23 -2 -44 42 -41 34 2 34 2 31 47 -3 42 -5 45 -35
48 -17 2 -34 -2 -38 -7z m55 -61 c-11 -21 -35 -27 -45 -10 -10 16 4 30 31 30
22 0 23 -3 14 -20z"/>
<path d="M6070 4030 c0 -27 5 -50 10 -50 6 0 10 18 10 40 0 33 4 42 23 50 20
8 19 9 -10 9 -33 1 -33 1 -33 -49z"/>
<path d="M6152 4068 c-27 -27 -5 -88 32 -88 13 0 29 7 36 15 14 17 0 21 -17 4
-15 -15 -43 -4 -43 16 0 11 10 15 35 15 22 0 35 5 35 13 0 19 -21 37 -45 37
-12 0 -26 -5 -33 -12z m56 -15 c2 -8 -6 -13 -22 -13 -25 0 -33 10 -19 24 10
10 36 3 41 -11z"/>
<path d="M6335 4071 c-4 -7 5 -9 25 -5 23 5 30 3 30 -10 0 -9 -8 -16 -19 -16
-11 0 -27 -7 -36 -16 -23 -23 -2 -44 42 -41 34 2 34 2 31 47 -3 42 -5 45 -35
48 -17 2 -34 -2 -38 -7z m55 -61 c-11 -21 -35 -27 -45 -10 -10 16 4 30 31 30
22 0 23 -3 14 -20z"/>
<path d="M6447 4073 c-16 -15 -5 -35 23 -45 37 -12 34 -34 -4 -31 -14 1 -24
-2 -21 -8 9 -14 51 -11 65 6 16 19 -1 42 -33 47 -28 4 -19 23 11 23 12 -1 22
3 22 7 0 10 -54 11 -63 1z"/>
<path d="M4450 3170 c0 -5 9 -10 20 -10 18 0 20 -7 20 -60 0 -33 4 -60 10 -60
6 0 10 27 10 60 0 53 2 60 20 60 11 0 20 5 20 10 0 6 -22 10 -50 10 -27 0 -50
-4 -50 -10z"/>
<path d="M5496 3158 c-34 -48 -8 -118 43 -118 16 0 34 7 41 15 18 22 5 31 -15
11 -19 -19 -21 -19 -46 -6 -14 8 -19 21 -19 50 0 29 5 42 19 50 25 13 27 13
46 -6 20 -20 33 -11 15 11 -19 23 -66 19 -84 -7z"/>
<path d="M8090 3140 c-18 -18 -20 -33 -20 -180 0 -147 2 -162 20 -180 19 -19
33 -20 470 -20 437 0 451 1 470 20 18 18 20 33 20 180 0 147 -2 162 -20 180
-19 19 -33 20 -470 20 -437 0 -451 -1 -470 -20z m221 -120 c23 -13 26 -40 4
-40 -8 0 -15 5 -15 10 0 19 -39 10 -45 -10 -9 -30 4 -60 26 -60 10 0 19 5 19
10 0 6 7 10 15 10 8 0 15 -7 15 -15 0 -19 -46 -38 -72 -29 -37 11 -46 85 -16
121 13 16 42 17 69 3z m367 -58 c2 -51 0 -62 -13 -62 -12 0 -15 13 -15 66 0
48 3 65 13 62 7 -3 13 -28 15 -66z m142 53 c0 -8 -7 -15 -15 -15 -8 0 -15 7
-15 15 0 8 7 15 15 15 8 0 15 -7 15 -15z m-409 -25 c29 -16 26 -77 -5 -91 -37
-17 -66 3 -66 46 0 46 31 66 71 45z m113 -6 c21 -20 22 -84 2 -84 -9 0 -16 12
-18 33 -2 20 -8 32 -18 32 -10 0 -16 -12 -18 -32 -5 -53 -32 -43 -32 11 0 38
3 45 23 49 40 8 45 7 61 -9z m97 6 c30 -17 23 -33 -11 -25 -27 6 -30 4 -30
-19 0 -26 25 -37 32 -14 5 13 28 2 28 -13 0 -5 -11 -14 -24 -20 -36 -17 -66 3
-66 44 0 51 28 69 71 47z m99 -35 c0 -24 5 -35 15 -35 10 0 15 11 15 35 0 24
5 35 15 35 11 0 15 -12 15 -44 0 -41 -2 -44 -31 -50 -42 -8 -59 8 -59 55 0 28
4 39 15 39 10 0 15 -11 15 -35z m100 -10 c0 -33 -4 -45 -15 -45 -11 0 -15 12
-15 45 0 33 4 45 15 45 11 0 15 -12 15 -45z m80 35 c0 -5 -7 -10 -15 -10 -10
0 -15 -11 -15 -35 0 -24 -5 -35 -15 -35 -11 0 -15 12 -15 45 0 43 1 45 30 45
17 0 30 -4 30 -10z"/>
<path d="M8370 2945 c0 -26 24 -35 32 -12 7 18 -2 37 -18 37 -8 0 -14 -10 -14
-25z"/>
<path d="M4562 3128 c-27 -27 -5 -88 32 -88 13 0 29 7 36 15 14 17 0 21 -17 4
-15 -15 -43 -4 -43 16 0 11 10 15 35 15 22 0 35 5 35 13 0 19 -21 37 -45 37
-12 0 -26 -5 -33 -12z m56 -15 c2 -8 -6 -13 -22 -13 -25 0 -33 10 -19 24 10
10 36 3 41 -11z"/>
<path d="M4672 3085 l1 -50 6 44 c4 31 12 46 26 52 17 6 15 7 -7 6 -27 -1 -28
-3 -26 -52z"/>
<path d="M4740 3090 c0 -61 18 -67 22 -7 2 34 7 42 23 42 16 0 21 -8 24 -45
l5 -45 5 45 c5 36 10 45 26 45 16 0 21 -8 23 -42 2 -24 7 -43 13 -43 11 0 12
70 1 86 -4 6 -37 12 -74 12 l-68 1 0 -49z"/>
<path d="M4920 3090 c0 -27 5 -50 10 -50 6 0 10 23 10 50 0 28 -4 50 -10 50
-5 0 -10 -22 -10 -50z"/>
<path d="M4971 3085 c1 -27 3 -39 6 -25 10 65 13 71 36 68 18 -2 23 -10 25
-45 4 -54 22 -57 22 -4 0 46 -16 62 -59 59 -30 -2 -31 -3 -30 -53z"/>
<path d="M5095 3131 c-4 -7 5 -9 25 -5 23 5 30 3 30 -10 0 -10 -8 -16 -24 -16
-13 0 -29 -7 -36 -15 -19 -23 5 -45 46 -43 l35 1 -3 46 c-3 44 -5 46 -35 49
-17 2 -34 -2 -38 -7z m55 -56 c0 -9 -7 -18 -16 -22 -18 -7 -39 11 -30 26 11
17 46 13 46 -4z"/>
<path d="M5200 3090 c0 -27 5 -50 10 -50 6 0 10 18 10 40 0 33 4 42 23 50 20
8 19 9 -10 9 -33 1 -33 1 -33 -49z"/>
<path d="M5327 3133 c-12 -11 -8 -68 5 -81 21 -21 57 -14 70 13 17 38 -3 75
-40 75 -16 0 -32 -3 -35 -7z m61 -39 c4 -37 -23 -54 -46 -30 -22 22 -8 68 21
64 16 -2 23 -11 25 -34z"/>
<path d="M5624 3095 l1 -50 38 -1 37 -1 -2 51 c-1 42 -2 45 -5 14 -5 -44 -26
-66 -47 -48 -8 6 -17 28 -19 48 -3 25 -4 21 -3 -13z"/>
<path d="M5741 3088 c1 -29 3 -42 6 -28 9 56 14 69 31 73 10 3 6 5 -10 6 -27
1 -28 0 -27 -51z"/>
<path d="M5817 3133 c-16 -15 -5 -35 23 -45 37 -12 34 -34 -4 -31 -14 1 -24
-2 -21 -8 9 -14 51 -11 65 6 16 19 -1 42 -33 47 -28 4 -19 23 11 23 12 -1 22
3 22 7 0 10 -54 11 -63 1z"/>
<path d="M5922 3128 c-7 -7 -12 -24 -12 -38 0 -31 17 -50 45 -50 38 0 56 39
39 84 -7 19 -55 21 -72 4z m63 -18 c8 -26 -12 -62 -33 -58 -18 3 -28 39 -18
64 8 21 44 17 51 -6z"/>
</g>
</svg>
