<?xml version="1.0" standalone="no"?>
<!DOCTYPE svg PUBLIC "-//W3C//DTD SVG 20010904//EN"
 "http://www.w3.org/TR/2001/REC-SVG-20010904/DTD/svg10.dtd">
<svg version="1.0" xmlns="http://www.w3.org/2000/svg"
 width="1845.000000pt" height="920.000000pt" viewBox="0 0 1845.000000 920.000000"
 preserveAspectRatio="xMidYMid meet">

<g transform="translate(0.000000,920.000000) scale(0.100000,-0.100000)"
fill="#000000" stroke="none">
<path d="M0 8595 l0 -605 9225 0 9225 0 0 605 0 605 -9225 0 -9225 0 0 -605z
m1817 239 c42 -24 91 -102 78 -124 -3 -5 -26 -10 -50 -10 -38 0 -45 4 -63 34
-38 65 -129 57 -164 -14 -49 -97 1 -220 88 -220 34 0 84 33 84 56 0 10 14 14
56 14 53 0 55 -1 49 -22 -24 -78 -84 -126 -168 -135 -63 -6 -115 8 -158 44
-85 72 -101 223 -34 325 56 85 184 109 282 52z m-997 -134 c0 -151 1 -160 22
-180 29 -27 85 -27 115 2 22 21 23 27 23 180 l0 158 55 0 55 0 0 -157 c0 -138
-2 -162 -21 -199 -31 -65 -77 -89 -169 -89 -92 0 -138 24 -169 89 -19 37 -21
61 -21 199 l0 157 55 0 55 0 0 -160z m630 120 l0 -40 -95 0 -95 0 0 -60 0 -60
85 0 85 0 0 -40 0 -40 -85 0 -85 0 0 -80 0 -80 -55 0 -55 0 0 220 0 220 150 0
150 0 0 -40z m968 -74 c22 -62 44 -131 48 -152 l7 -39 18 65 c10 36 32 104 49
153 l32 87 74 0 74 0 0 -220 0 -220 -50 0 -50 0 -1 143 0 142 -48 -140 -48
-140 -48 0 -48 0 -48 135 -48 135 0 -137 -1 -138 -50 0 -50 0 0 220 0 220 74
0 74 0 40 -114z m594 -7 c9 -5 26 -21 37 -35 19 -24 21 -40 21 -155 l0 -129
-45 0 c-34 0 -45 4 -45 16 0 13 -5 12 -26 -5 -47 -37 -147 -21 -174 28 -13 25
-13 77 0 101 15 28 47 43 120 55 59 10 65 13 65 36 0 20 -6 25 -31 27 -19 2
-38 -3 -47 -12 -17 -17 -74 -21 -96 -7 -12 8 -12 13 2 35 38 57 151 80 219 45z
m388 -8 c43 -31 61 -73 61 -145 1 -50 -5 -75 -22 -105 -36 -64 -107 -88 -169
-56 l-29 15 -3 -72 -3 -73 -50 0 -50 0 -3 228 -2 227 50 0 c45 0 50 -2 50 -22
l0 -21 23 20 c39 36 99 38 147 4z m12840 -1 c0 -17 -7 -20 -45 -20 -41 0 -45
-2 -45 -25 0 -22 4 -25 40 -25 33 0 40 -3 40 -20 0 -17 -7 -20 -40 -20 -33 0
-40 -3 -40 -20 0 -17 7 -20 45 -20 38 0 45 -3 45 -20 0 -18 -7 -20 -75 -20
l-75 0 0 105 0 105 75 0 c68 0 75 -2 75 -20z m350 -86 l0 -106 -27 3 c-16 1
-36 -2 -46 -6 -26 -11 -66 10 -77 41 -16 42 -11 73 16 101 20 20 32 24 55 19
27 -5 29 -3 29 24 0 25 4 30 25 30 l25 0 0 -106z m-188 38 c7 -7 14 -41 16
-77 4 -64 4 -65 -22 -65 -24 0 -26 3 -26 43 0 47 -20 84 -38 73 -7 -4 -12 -31
-12 -62 0 -51 -1 -54 -25 -54 -25 0 -25 1 -25 79 l0 80 60 -3 c33 -1 65 -7 72
-14z m328 8 c19 -10 43 -67 34 -81 -3 -5 -28 -9 -56 -9 -44 0 -49 -2 -38 -15
14 -17 40 -20 40 -5 0 14 37 13 46 -1 12 -20 -25 -44 -67 -44 -50 0 -79 30
-79 82 0 62 66 102 120 73z m155 -14 c0 -11 -8 -20 -19 -22 -26 -4 -36 -22
-36 -71 0 -39 -2 -43 -25 -43 -25 0 -25 1 -25 80 l0 80 53 -3 c44 -2 52 -5 52
-21z m130 -1 c14 -13 25 -36 25 -50 0 -23 -3 -25 -50 -25 -27 0 -50 -4 -50 -9
0 -18 22 -23 45 -11 28 15 57 7 49 -13 -6 -17 -47 -37 -73 -37 -10 0 -30 9
-45 21 -21 16 -26 29 -26 64 0 35 5 48 26 64 35 28 69 26 99 -4z m163 9 c12
-8 22 -21 22 -28 0 -21 -33 -29 -46 -12 -15 21 -31 20 -44 -3 -14 -27 -13 -37
6 -56 15 -15 18 -15 35 1 22 20 52 11 47 -13 -2 -10 -13 -22 -25 -29 -16 -8
-19 -14 -11 -22 17 -17 1 -42 -27 -42 -28 0 -35 19 -7 21 16 1 16 2 -1 6 -9 2
-15 9 -12 14 4 5 -5 14 -19 20 -31 15 -50 59 -41 98 12 55 75 79 123 45z m161
6 c53 -28 47 -127 -9 -150 -58 -24 -110 12 -110 76 0 34 5 47 26 63 29 23 64
27 93 11z m173 -7 c10 -9 18 -19 18 -23 0 -12 -39 -19 -46 -9 -7 11 -34 12
-34 1 0 -5 18 -14 39 -21 43 -12 56 -33 41 -61 -22 -41 -89 -50 -127 -19 -35
30 5 53 47 27 10 -7 22 -9 26 -6 11 12 -7 28 -31 28 -21 0 -55 32 -55 52 0 5
9 17 20 28 24 24 77 26 102 3z m-15352 -43 l0 -40 -105 0 -105 0 0 40 0 40
105 0 105 0 0 -40z"/>
<path d="M2902 8549 c-28 -8 -33 -14 -30 -37 6 -55 98 -32 98 25 0 25 -13 28
-68 12z"/>
<path d="M3268 8669 c-27 -16 -41 -80 -26 -124 15 -45 36 -60 70 -52 52 13 64
131 18 169 -25 20 -38 22 -62 7z"/>
<path d="M16490 8641 c-14 -27 -13 -37 6 -56 12 -12 19 -13 30 -4 17 14 18 51
2 67 -17 17 -26 15 -38 -7z"/>
<path d="M16665 8650 c-4 -6 5 -10 19 -10 14 0 26 5 26 10 0 6 -9 10 -19 10
-11 0 -23 -4 -26 -10z"/>
<path d="M16945 8650 c-4 -6 5 -10 20 -10 15 0 24 4 20 10 -3 6 -12 10 -20 10
-8 0 -17 -4 -20 -10z"/>
<path d="M17282 8648 c-16 -16 -15 -53 3 -68 27 -22 49 16 34 58 -9 25 -19 28
-37 10z"/>
<path d="M12987 6693 c-4 -38 -11 -52 -37 -73 -17 -14 -55 -47 -83 -73 -28
-26 -57 -45 -64 -43 -9 4 -20 -9 -32 -37 -10 -23 -28 -50 -39 -60 -54 -49 -49
-98 18 -170 40 -44 42 -57 10 -57 -25 0 -53 -36 -53 -69 0 -17 13 -44 32 -68
29 -37 32 -45 29 -99 l-3 -59 -35 -5 -35 -5 1 -115 c0 -159 33 -916 43 -1019
7 -62 17 -98 40 -143 30 -58 41 -118 22 -118 -15 0 -69 88 -91 148 -14 37 -24
94 -28 166 l-7 111 -43 3 -44 3 9 52 c21 131 -3 308 -44 324 -22 9 -33 -8 -43
-69 -8 -53 -47 -158 -57 -158 -3 0 -32 25 -65 55 -83 77 -121 75 -93 -5 29
-82 22 -135 -55 -419 -32 -118 -14 -144 104 -155 38 -3 69 -7 70 -8 1 -2 21
-43 45 -93 37 -73 61 -106 130 -175 54 -53 113 -100 158 -125 76 -43 83 -54
83 -142 0 -29 -3 -33 -25 -33 -20 0 -25 -5 -25 -25 0 -15 9 -31 25 -41 14 -9
25 -26 25 -38 0 -25 60 -76 89 -76 25 0 91 56 91 77 0 9 12 26 26 40 30 27 28
57 -4 61 -18 3 -22 10 -22 39 0 31 2 35 23 30 27 -7 170 -26 217 -29 34 -3 35
-4 35 -43 0 -34 -3 -40 -22 -43 -32 -5 -31 -46 2 -68 14 -9 25 -24 25 -34 0
-18 62 -80 81 -80 32 0 99 56 99 83 0 10 11 28 25 39 34 26 33 58 -1 58 -23 0
-25 3 -22 43 l3 42 80 7 c44 4 102 12 129 18 27 6 50 9 52 8 1 -2 4 -17 6 -33
2 -25 -1 -31 -19 -33 -32 -5 -31 -46 2 -68 14 -9 25 -26 25 -38 0 -25 60 -76
89 -76 25 0 91 56 91 77 0 9 11 26 25 39 34 31 33 64 0 64 -25 0 -26 1 -23 67
l3 67 63 36 c142 80 243 186 311 327 37 77 48 83 141 83 20 0 46 7 59 16 20
14 22 23 19 68 -3 28 -21 110 -42 181 -40 142 -48 231 -26 303 15 48 5 68 -27
58 -10 -3 -43 -29 -72 -57 -51 -49 -55 -51 -68 -33 -19 25 -53 139 -53 175 0
35 -25 49 -46 27 -38 -38 -59 -225 -34 -308 16 -55 14 -60 -30 -60 -23 0 -43
-5 -45 -12 -3 -7 -9 -62 -14 -123 -10 -120 -28 -178 -78 -249 -62 -87 -73 -41
-17 69 33 67 36 79 44 210 10 149 41 856 43 990 l2 80 -40 5 -40 5 -3 56 c-3
52 0 59 33 98 51 62 45 118 -15 140 l-31 10 35 36 c44 44 54 90 30 140 -17 36
-17 38 4 81 25 52 29 122 7 150 -16 21 -18 19 -52 -33 -10 -15 -11 -6 -6 44 5
55 3 67 -18 98 -13 19 -29 35 -35 35 -14 0 -24 -23 -24 -52 0 -32 -30 -73 -68
-94 -19 -10 -48 -36 -65 -56 -21 -27 -36 -37 -48 -33 -14 5 -22 -2 -33 -28 -7
-19 -28 -53 -45 -77 -17 -24 -31 -55 -31 -70 0 -26 40 -91 73 -119 20 -16 14
-31 -12 -31 -27 0 -51 -33 -51 -69 0 -21 11 -45 31 -70 25 -32 30 -46 27 -82
-2 -28 -8 -44 -15 -43 -7 1 -42 2 -78 3 -48 1 -67 5 -71 16 -11 28 6 82 36
114 48 49 38 109 -21 130 l-32 11 27 21 c53 42 69 104 41 159 -14 26 -13 33 5
75 22 51 26 115 10 146 -15 27 -27 24 -46 -13 -21 -40 -30 -21 -14 28 11 31 9
41 -12 82 -26 50 -58 68 -58 33 0 -48 -32 -100 -81 -132 -27 -17 -59 -44 -70
-60 -11 -16 -26 -29 -32 -28 -27 3 -35 -2 -41 -27 -4 -15 -23 -47 -42 -72 -48
-63 -44 -99 20 -170 36 -39 37 -52 6 -52 -54 0 -66 -85 -20 -140 23 -26 30
-44 30 -77 l0 -43 -70 -1 c-38 -1 -76 -2 -82 -3 -9 -1 -12 14 -11 47 1 37 8
55 32 83 20 22 31 45 31 64 0 34 -31 70 -60 70 -28 0 -25 11 10 45 45 43 56
86 33 133 -18 37 -18 38 5 96 18 45 22 69 17 101 -8 55 -30 65 -53 25 -20 -35
-38 -40 -27 -7 19 57 17 92 -7 127 -36 53 -54 51 -61 -7z m35 -110 c2 -29 -3
-57 -11 -71 -22 -36 -6 -37 44 -2 26 18 49 29 53 26 3 -4 -4 -38 -17 -75 -22
-64 -22 -70 -7 -99 23 -45 20 -78 -13 -114 l-29 -33 -121 -1 c-132 -1 -134 0
-184 76 -24 35 -21 54 17 104 19 25 36 51 39 58 4 10 8 10 16 -2 10 -13 12
-13 20 0 43 73 58 91 91 109 21 12 49 32 62 46 12 14 26 25 30 25 4 0 8 -21
10 -47z m468 -18 c0 -23 -5 -46 -11 -52 -6 -6 -9 -17 -7 -23 2 -8 21 1 51 24
l47 36 0 -29 c0 -16 -9 -50 -20 -76 -20 -46 -20 -46 0 -86 25 -47 19 -79 -21
-118 -28 -28 -29 -28 -145 -27 -115 1 -118 2 -147 30 -16 16 -36 44 -44 62
-16 32 -16 33 29 92 30 40 49 57 55 51 7 -7 19 5 37 36 18 29 47 59 80 80 28
18 58 40 66 49 18 23 30 4 30 -49z m455 14 c0 -24 -3 -52 -8 -62 -17 -37 0
-38 46 -3 l47 36 0 -29 c0 -16 -9 -49 -21 -75 l-20 -47 21 -44 c19 -40 20 -46
7 -72 -34 -64 -51 -71 -177 -69 -63 1 -121 6 -129 10 -17 11 -71 96 -71 113 0
7 13 27 29 45 15 18 35 47 44 63 11 20 16 24 17 13 0 -28 18 -21 36 15 23 46
42 65 102 103 28 19 52 39 52 45 0 6 6 9 13 6 7 -2 12 -22 12 -48z m-1088
-395 c-3 -3 -12 -4 -19 -1 -8 3 -5 6 6 6 11 1 17 -2 13 -5z m460 0 c-3 -3 -12
-4 -19 -1 -8 3 -5 6 6 6 11 1 17 -2 13 -5z m460 0 c-3 -3 -12 -4 -19 -1 -8 3
-5 6 6 6 11 1 17 -2 13 -5z m-696 -34 c15 -9 19 -19 17 -43 l-3 -32 -175 0
-175 0 -3 29 c-4 36 7 48 60 57 57 10 253 2 279 -11z m453 4 c26 -10 39 -41
26 -64 -10 -19 -21 -20 -178 -20 -172 0 -192 4 -192 41 0 24 26 42 73 50 46 9
244 3 271 -7z m460 0 c26 -10 39 -41 26 -64 -10 -20 -19 -20 -183 -18 l-172 3
-3 29 c-4 36 7 48 60 57 47 9 245 3 272 -7z m-945 -110 c2 -2 -58 -3 -135 -2
-107 1 -125 3 -79 8 56 6 205 2 214 -6z m460 0 c2 -2 -58 -3 -135 -2 -107 1
-125 3 -79 8 56 6 205 2 214 -6z m470 0 c2 -2 -61 -3 -140 -2 -108 1 -129 3
-84 8 56 6 215 2 224 -6z m-949 -79 c0 -48 -2 -55 -20 -55 -16 0 -20 7 -20 35
0 21 5 35 12 35 9 0 9 3 1 11 -19 19 -33 0 -33 -42 0 -21 -4 -39 -9 -39 -5 0
-17 -3 -27 -7 -15 -5 -16 0 -12 46 4 35 2 51 -6 48 -6 -2 -13 -23 -16 -48 -4
-39 -8 -44 -32 -47 -26 -3 -28 -1 -28 32 0 19 5 38 11 42 8 4 8 9 0 17 -17 17
-26 -1 -26 -49 0 -60 -19 -61 -23 0 -5 77 -7 76 118 76 l110 0 0 -55z m460 10
c0 -38 -3 -45 -20 -45 -15 0 -20 7 -20 25 0 14 5 25 12 25 9 0 9 3 1 11 -17
17 -33 1 -33 -32 0 -26 -3 -29 -31 -29 -33 0 -34 5 -14 54 6 14 4 18 -6 14 -8
-2 -15 -19 -17 -36 -3 -28 -7 -32 -33 -32 -22 0 -29 5 -29 19 0 11 5 23 11 27
7 4 7 10 1 16 -16 16 -32 0 -32 -33 0 -16 -4 -29 -10 -29 -5 0 -10 20 -10 45
l0 45 115 0 115 0 0 -45z m460 -21 c0 -57 -2 -65 -17 -62 -22 4 -33 88 -12 88
10 0 10 3 2 11 -19 19 -33 0 -33 -47 0 -41 -2 -44 -26 -44 -26 0 -26 1 -22 50
4 35 2 50 -6 47 -6 -2 -12 -23 -14 -46 -3 -39 -5 -42 -30 -39 -30 3 -42 38
-22 63 7 9 8 15 0 20 -19 11 -30 -6 -30 -46 0 -24 -4 -38 -10 -34 -5 3 -10 28
-10 56 l0 49 115 0 115 0 0 -66z m-849 -139 c29 -36 54 -65 57 -65 2 0 17 11
34 25 l29 25 49 -57 49 -58 -24 -25 c-14 -15 -25 -30 -25 -34 0 -13 91 -117
107 -123 8 -3 25 5 39 18 l24 23 38 -44 c65 -75 64 -74 37 -100 -14 -13 -25
-28 -25 -33 0 -15 101 -127 114 -127 7 0 21 9 31 20 10 11 21 20 25 20 4 0 29
-25 54 -57 l47 -56 -27 -28 c-30 -32 -34 -22 40 -111 44 -53 55 -57 81 -28 10
11 22 20 26 20 4 0 29 -25 55 -55 l47 -56 -28 -29 -29 -30 34 -41 c30 -38 32
-45 27 -91 -14 -111 -89 -206 -209 -264 -40 -18 -77 -34 -83 -33 -5 0 -34 29
-64 65 -51 62 -55 64 -75 49 -42 -31 -48 -29 -92 21 -24 27 -43 53 -44 58 0 6
11 22 25 36 l25 26 -51 60 c-58 66 -72 73 -99 49 -25 -23 -39 -16 -88 42 l-41
50 29 28 29 28 -42 50 c-23 27 -49 58 -58 69 -15 20 -16 19 -47 -6 l-31 -27
-37 40 c-65 71 -67 75 -39 101 14 13 25 28 25 33 0 15 -101 127 -114 127 -7 0
-21 -9 -31 -20 -10 -11 -21 -20 -24 -20 -4 0 -28 25 -54 57 l-48 56 26 27 c14
14 25 30 25 35 0 5 -15 25 -34 45 l-35 35 -7 158 c-6 131 -5 157 7 158 8 0 59
6 114 13 55 8 123 14 152 15 l51 1 53 -65z m-525 -653 c9 -73 -1 -203 -18
-239 -12 -26 -18 -28 -88 -33 -41 -3 -81 -9 -88 -13 -26 -17 -42 -70 -49 -159
-8 -121 -15 -140 -51 -136 -40 4 -39 30 5 176 35 118 38 136 38 253 l0 126 37
-30 c20 -16 49 -47 64 -69 15 -21 30 -35 34 -31 18 22 69 155 75 198 7 43 9
46 21 31 7 -10 16 -43 20 -74z m1647 38 c3 -27 22 -84 41 -126 l36 -77 28 39
c28 38 101 108 107 102 2 -2 -2 -27 -8 -57 -13 -70 1 -182 42 -320 17 -57 31
-121 31 -142 0 -35 -3 -39 -25 -39 -34 0 -43 23 -50 121 -8 106 -29 167 -62
180 -13 5 -53 9 -88 9 -76 0 -77 1 -95 109 -12 75 -9 144 10 214 15 51 26 47
33 -13z m-1569 -341 c3 -17 6 -57 6 -88 0 -225 148 -391 412 -463 76 -21 104
-23 313 -22 221 0 233 1 320 28 117 35 193 77 259 141 89 85 124 173 135 335
l6 95 85 -4 c47 -2 103 -6 125 -10 l40 -7 -3 -99 c-4 -165 -46 -294 -130 -406
-171 -229 -442 -339 -839 -339 -394 0 -679 111 -842 327 -90 119 -141 280
-141 442 l0 79 63 6 c34 3 78 8 97 9 88 9 87 9 94 -24z m-255 -235 c17 -61 15
-66 -26 -62 -31 2 -38 7 -36 23 30 245 35 265 44 164 4 -47 12 -103 18 -125z
m2000 100 c0 -28 8 -73 16 -100 16 -54 10 -64 -36 -64 -36 0 -38 4 -24 58 7
26 16 85 21 132 6 66 9 78 15 55 3 -16 7 -53 8 -81z m-1539 -260 c0 -13 -4
-24 -10 -24 -5 0 -10 14 -10 31 0 17 4 28 10 24 6 -3 10 -17 10 -31z m1050 1
c0 -14 -4 -25 -10 -25 -5 0 -10 11 -10 25 0 14 5 25 10 25 6 0 10 -11 10 -25z
m-1000 -37 c0 -30 -25 -15 -28 17 -3 25 -2 27 12 16 9 -8 16 -22 16 -33z m960
7 c0 -14 -4 -25 -10 -25 -5 0 -10 11 -10 25 0 14 5 25 10 25 6 0 10 -11 10
-25z m-920 -31 c0 -14 -4 -22 -10 -19 -5 3 -10 17 -10 31 0 14 4 22 10 19 6
-3 10 -17 10 -31z m880 12 c0 -14 -5 -28 -10 -31 -13 -8 -24 20 -16 40 9 24
26 17 26 -9z m-840 -26 c0 -11 -4 -20 -10 -20 -5 0 -10 9 -10 20 0 11 5 20 10
20 6 0 10 -9 10 -20z m790 -2 c0 -18 -2 -20 -9 -8 -6 8 -7 18 -5 22 9 14 14 9
14 -14z m-620 -15 c124 -21 120 -19 120 -44 0 -21 -3 -22 -77 -16 -43 4 -100
13 -128 20 -44 12 -50 17 -53 41 -3 26 -1 28 20 22 13 -4 66 -14 118 -23z
m570 -2 c0 -28 -1 -29 -87 -45 -49 -9 -105 -16 -125 -16 -34 0 -38 3 -38 25 0
22 4 25 38 26 20 0 73 9 117 18 44 10 83 19 88 20 4 0 7 -12 7 -28z m-413 -53
c-3 -7 -5 -2 -5 12 0 14 2 19 5 13 2 -7 2 -19 0 -25z m53 12 c0 -11 -7 -20
-15 -20 -8 0 -15 9 -15 20 0 11 7 20 15 20 8 0 15 -9 15 -20z m40 0 c0 -11 -4
-20 -9 -20 -14 0 -23 18 -16 30 10 17 25 11 25 -10z m40 -6 c0 -8 -4 -14 -10
-14 -5 0 -10 9 -10 21 0 11 5 17 10 14 6 -3 10 -13 10 -21z m-583 -331 c-2
-16 -4 -3 -4 27 0 30 2 43 4 28 2 -16 2 -40 0 -55z m1033 27 c0 -27 -4 -50
-10 -50 -11 0 -13 42 -4 78 10 35 14 26 14 -28z m-990 5 c0 -13 -4 -27 -10
-30 -6 -4 -10 8 -10 30 0 22 4 34 10 30 6 -3 10 -17 10 -30z m960 0 c0 -19 -4
-35 -10 -35 -5 0 -10 16 -10 35 0 19 5 35 10 35 6 0 10 -16 10 -35z m-920 -11
c0 -13 -4 -24 -10 -24 -5 0 -10 14 -10 31 0 17 4 28 10 24 6 -3 10 -17 10 -31z
m880 6 c0 -16 -4 -30 -10 -30 -5 0 -10 14 -10 30 0 17 5 30 10 30 6 0 10 -13
10 -30z m-853 -32 c-2 -13 -4 -5 -4 17 -1 22 1 32 4 23 2 -10 2 -28 0 -40z
m810 0 c-2 -13 -4 -5 -4 17 -1 22 1 32 4 23 2 -10 2 -28 0 -40z m-460 -50 c-2
-13 -4 -5 -4 17 -1 22 1 32 4 23 2 -10 2 -28 0 -40z m43 27 c0 -14 -4 -25 -10
-25 -5 0 -10 11 -10 25 0 14 5 25 10 25 6 0 10 -11 10 -25z m40 6 c0 -11 -4
-23 -10 -26 -6 -4 -10 5 -10 19 0 14 5 26 10 26 6 0 10 -9 10 -19z m30 -18 c0
-27 -3 -34 -11 -26 -7 7 -9 23 -5 37 9 37 16 32 16 -11z m-500 2 c6 -8 9 -23
5 -35 -7 -23 7 -27 25 -5 7 8 24 15 38 15 l25 0 -27 -25 c-14 -13 -26 -31 -26
-40 0 -15 -2 -15 -22 -1 -28 20 -62 20 -78 1 -16 -20 -30 -19 -30 2 0 9 -10
27 -22 40 -20 21 -20 23 -3 23 10 0 30 -10 43 -22 l25 -23 -5 28 c-3 17 0 34
9 43 18 18 27 18 43 -1z m918 3 c7 -7 12 -23 12 -37 0 -23 1 -23 18 -8 10 10
29 17 42 17 l23 0 -27 -25 c-14 -13 -26 -31 -26 -40 0 -19 -7 -19 -26 0 -9 8
-26 15 -38 15 -13 0 -29 -7 -36 -15 -16 -20 -30 -19 -30 2 0 9 -10 27 -22 40
-21 23 -21 23 -1 23 11 0 26 -7 33 -15 19 -23 30 -18 30 14 0 25 9 37 31 40 3
1 10 -4 17 -11z m-458 -53 c6 -8 9 -23 5 -35 -8 -25 0 -25 32 0 25 19 53 27
53 14 0 -3 -11 -15 -25 -26 -14 -11 -25 -29 -25 -40 0 -20 -1 -20 -18 -5 -23
21 -66 22 -85 2 -17 -16 -27 -10 -27 16 0 10 -9 23 -20 29 -11 6 -20 15 -20
20 0 17 29 11 50 -10 26 -26 33 -25 26 4 -4 18 -1 28 11 35 24 14 29 13 43 -4z
m-455 -70 c0 -13 -8 -21 -24 -23 -32 -5 -48 12 -31 33 18 22 55 15 55 -10z
m920 0 c0 -13 -8 -21 -24 -23 -28 -4 -45 17 -29 36 17 20 53 11 53 -13z m-460
-50 c0 -23 -30 -32 -50 -15 -21 18 -7 42 24 38 18 -2 26 -9 26 -23z"/>
<path d="M12987 5765 c-6 -13 -10 -15 -21 -6 -17 14 -31 -2 -20 -21 6 -10 4
-10 -7 0 -20 18 -32 15 -26 -8 6 -22 -3 -26 -21 -8 -17 17 -28 0 -14 -23 12
-18 10 -19 -14 -13 -23 6 -25 4 -19 -15 5 -16 3 -20 -9 -15 -19 7 -21 -7 -4
-24 9 -9 8 -12 -5 -12 -20 0 -23 -26 -4 -33 7 -3 5 -6 -5 -6 -22 -1 -24 -20
-3 -27 14 -6 13 -8 -2 -19 -15 -11 -14 -14 13 -28 20 -11 24 -16 12 -17 -22 0
-24 -19 -2 -27 8 -3 13 -12 10 -19 -5 -13 6 -18 27 -15 4 0 7 -8 7 -19 0 -15
7 -20 25 -20 15 0 24 -5 23 -12 -2 -8 6 -12 21 -10 14 1 28 -3 31 -9 12 -19
49 12 72 60 l21 44 43 -49 c33 -38 45 -46 55 -37 9 9 3 22 -29 60 l-41 47 40
13 c23 6 52 22 66 35 22 20 22 24 8 34 -10 8 -12 14 -6 19 16 10 13 35 -4 35
-12 0 -14 7 -9 27 6 22 4 25 -10 20 -12 -5 -16 0 -16 19 0 19 -4 25 -14 21 -9
-4 -17 2 -21 14 -7 20 -25 27 -25 9 0 -5 -4 -10 -10 -10 -5 0 -10 9 -10 20 0
21 -20 29 -20 8 0 -7 -9 -2 -20 12 l-20 25 0 -24 0 -23 -18 22 c-17 21 -19 22
-25 5z"/>
<path d="M13320 5363 c0 -13 -3 -14 -12 -5 -19 19 -31 14 -25 -9 5 -20 5 -20
-14 -3 -19 17 -23 14 -19 -21 2 -16 0 -17 -14 -6 -22 18 -33 5 -18 -20 12 -18
11 -19 -7 -10 -28 16 -34 14 -28 -10 4 -15 2 -19 -9 -15 -17 7 -18 -15 -1 -33
10 -11 10 -13 0 -7 -24 14 -35 -5 -16 -27 17 -19 17 -20 1 -14 -10 4 -18 2
-18 -5 0 -6 8 -17 18 -24 16 -13 16 -13 0 -14 -25 0 -22 -17 4 -26 21 -6 21
-7 3 -21 -19 -13 -19 -14 3 -20 17 -4 21 -10 17 -24 -5 -14 -1 -19 14 -19 12
0 21 -7 21 -15 0 -9 9 -15 25 -15 19 0 23 -4 18 -16 -5 -14 -2 -16 20 -11 16
5 27 3 30 -6 8 -24 55 14 74 59 10 24 20 44 23 44 3 -1 21 -21 40 -45 19 -25
40 -45 47 -45 27 0 21 22 -17 63 -46 50 -48 57 -20 57 26 0 72 23 89 44 10 12
11 20 2 29 -7 10 -7 17 0 24 13 13 2 36 -12 27 -6 -3 -9 6 -7 23 2 18 -1 27
-9 26 -7 -2 -13 5 -13 15 0 26 -11 34 -27 21 -10 -9 -13 -6 -13 16 0 27 0 28
-20 10 -20 -18 -20 -17 -20 8 0 28 -13 36 -26 16 -5 -8 -10 -6 -16 5 -7 13
-13 14 -23 6 -9 -8 -15 -8 -20 0 -10 16 -25 12 -25 -7z"/>
<path d="M13660 4973 c0 -13 -3 -14 -12 -5 -16 16 -28 15 -28 -3 0 -13 -4 -14
-21 -4 -20 10 -21 9 -15 -15 6 -24 5 -26 -13 -14 -26 16 -36 6 -21 -22 10 -20
10 -21 -8 -11 -23 12 -36 3 -21 -16 9 -10 7 -13 -10 -13 -26 0 -27 -15 -3 -29
15 -9 15 -10 -5 -11 -25 0 -29 -10 -11 -28 9 -9 8 -12 -7 -12 -17 0 -17 -1 0
-20 10 -11 13 -20 7 -20 -20 0 -13 -22 8 -27 23 -6 27 -23 5 -23 -8 0 -15 -4
-15 -10 0 -5 9 -10 19 -10 14 0 18 -5 14 -20 -4 -16 0 -20 22 -20 23 0 26 -2
15 -15 -10 -12 -9 -16 3 -21 9 -3 21 -3 27 1 5 3 10 -1 10 -11 0 -12 6 -15 24
-12 16 3 27 0 31 -10 4 -12 10 -11 32 9 14 13 32 39 39 57 8 17 17 32 21 32 4
0 26 -21 49 -47 36 -41 43 -45 49 -30 6 13 -2 29 -29 56 -41 42 -46 61 -16 61
43 0 122 58 93 67 -8 3 -11 14 -7 29 4 16 2 24 -6 24 -8 0 -11 9 -8 25 4 20 1
25 -14 25 -10 0 -18 6 -17 13 4 32 -1 40 -16 27 -13 -10 -15 -9 -15 9 0 25
-15 28 -28 5 -7 -13 -10 -10 -15 15 -7 33 -27 43 -27 14 -1 -16 -2 -15 -12 2
-16 30 -18 31 -29 15 -8 -11 -12 -12 -16 -2 -7 18 -23 15 -23 -5z"/>
<path d="M12533 4688 c-29 -16 -53 -33 -53 -38 0 -11 78 -23 116 -17 23 3 20
4 -13 6 -50 1 -55 14 -13 36 17 9 30 22 30 30 0 20 -5 18 -67 -17z"/>
<path d="M14155 4708 c-3 -7 -6 -24 -7 -37 -3 -23 2 -26 57 -37 38 -8 64 -9
70 -3 6 6 2 12 -13 15 -24 7 -30 24 -8 24 7 0 20 7 27 17 13 15 11 16 -22 9
-27 -5 -40 -2 -49 9 -15 18 -49 20 -55 3z m50 -27 c3 -5 1 -12 -4 -15 -12 -8
-41 3 -41 15 0 12 37 12 45 0z"/>
<path d="M12590 4585 c-88 -33 -93 -36 -83 -46 14 -14 123 28 123 47 0 8 -1
14 -2 13 -2 0 -19 -6 -38 -14z"/>
<path d="M14126 4584 c-25 -24 -20 -69 10 -93 57 -45 113 -13 105 59 -5 42
-84 66 -115 34z m88 -34 c41 -40 -16 -69 -69 -34 -28 18 -31 34 -13 52 16 16
57 7 82 -18z"/>
<path d="M12588 4502 c-26 -15 -48 -33 -48 -39 0 -16 5 -16 32 -2 19 10 20 9
13 -7 -15 -37 -17 -54 -8 -54 5 0 16 11 23 25 9 18 22 25 42 25 34 0 45 21 30
56 -14 30 -25 30 -84 -4z m72 -12 c0 -12 -28 -25 -36 -17 -9 9 6 27 22 27 8 0
14 -5 14 -10z"/>
<path d="M14066 4471 c-9 -14 94 -85 106 -73 6 6 -10 23 -41 46 -56 39 -57 40
-65 27z"/>
<path d="M12696 4432 c3 -10 -8 -30 -30 -51 -20 -19 -36 -39 -36 -43 0 -18 28
-6 60 27 19 20 40 33 47 31 20 -8 15 8 -10 32 -28 27 -37 28 -31 4z"/>
<path d="M14010 4405 c-19 -21 -21 -25 -7 -25 9 0 32 -16 50 -37 22 -23 38
-33 46 -28 9 5 2 18 -24 45 -24 25 -35 44 -32 54 9 24 -6 19 -33 -9z"/>
<path d="M12751 4333 c-7 -27 -15 -56 -18 -65 -3 -11 0 -18 7 -18 17 0 103 70
96 78 -4 3 -17 -5 -31 -18 -31 -29 -41 -21 -26 21 10 30 8 49 -8 49 -4 0 -13
-21 -20 -47z"/>
<path d="M13916 4337 c-18 -13 -17 -17 18 -71 20 -31 41 -54 46 -51 7 4 7 13
0 25 -16 29 -12 34 15 16 29 -19 35 -20 35 -3 0 7 -8 17 -19 24 -10 6 -21 25
-24 42 -5 24 -12 31 -30 31 -13 0 -31 -6 -41 -13z m47 -22 c8 -19 -13 -31 -24
-14 -13 20 -11 29 5 29 8 0 16 -7 19 -15z"/>
<path d="M12866 4298 c-18 -10 -22 -53 -6 -63 15 -9 12 -45 -3 -45 -7 0 -19 6
-26 13 -11 10 -13 9 -9 -3 6 -21 58 -19 72 2 8 13 8 23 -2 38 -21 34 -16 53
14 46 15 -4 23 -3 20 2 -9 15 -42 20 -60 10z"/>
<path d="M13798 4279 c-26 -14 -24 -83 2 -109 39 -39 100 -12 100 43 0 64 -51
96 -102 66z m56 -18 c10 -11 19 -35 19 -53 2 -27 -2 -34 -20 -36 -27 -4 -58
48 -49 84 8 29 27 31 50 5z"/>
<path d="M13014 4228 c3 -13 6 -42 6 -65 0 -28 4 -43 13 -43 13 0 72 98 64
107 -3 3 -13 -9 -22 -26 -19 -38 -35 -32 -35 15 0 25 -4 34 -16 34 -12 0 -15
-6 -10 -22z"/>
<path d="M13683 4242 c-8 -5 -8 -21 0 -65 12 -57 32 -75 32 -28 1 14 6 26 13
29 17 5 15 22 -2 22 -24 0 -30 22 -11 37 18 13 18 13 -1 13 -10 0 -24 -4 -31
-8z"/>
<path d="M13136 4169 c-8 -67 -1 -92 9 -35 4 20 11 36 15 36 4 0 15 -18 25
-40 22 -50 45 -53 45 -6 0 18 3 48 7 66 4 24 3 31 -5 26 -7 -4 -12 -20 -12
-37 0 -39 -11 -37 -35 8 -30 56 -41 52 -49 -18z"/>
<path d="M13506 4198 c-3 -15 0 -27 9 -34 20 -15 19 -28 0 -20 -17 6 -40 -37
-31 -58 3 -6 8 -1 11 12 8 25 40 30 49 7 3 -8 13 -15 22 -15 9 0 14 5 11 13
-53 127 -60 136 -71 95z"/>
<path d="M13290 4145 c0 -71 14 -87 24 -27 10 63 7 92 -9 92 -12 0 -15 -14
-15 -65z"/>
<path d="M13378 4203 c8 -3 12 -26 12 -64 0 -46 3 -59 15 -59 11 0 15 13 15
55 0 41 4 56 18 64 13 8 7 10 -28 10 -25 0 -39 -3 -32 -6z"/>
<path d="M7008 5470 c-19 -15 -21 -22 -12 -37 14 -23 57 -28 73 -9 16 19 9 41
-18 55 -15 8 -24 6 -43 -9z"/>
<path d="M9845 5477 c-13 -10 -16 -21 -11 -41 6 -24 11 -27 39 -24 25 2 33 8
35 27 3 15 -3 30 -14 38 -22 16 -26 16 -49 0z"/>
<path d="M10307 5462 c-10 -10 -17 -26 -17 -35 0 -22 29 -22 45 -1 11 15 14
15 38 -1 34 -22 70 -14 85 20 16 35 16 35 -13 35 -14 0 -25 -4 -25 -10 0 -5
-9 -10 -19 -10 -11 0 -23 5 -26 10 -10 16 -51 11 -68 -8z"/>
<path d="M3740 5281 l0 -181 88 0 c114 0 166 24 200 90 41 82 18 194 -51 244
-23 17 -47 22 -133 24 l-104 4 0 -181z m196 86 c23 -20 27 -31 28 -79 1 -75
-20 -105 -78 -113 -25 -4 -49 -4 -55 0 -7 4 -11 47 -11 111 l0 104 44 0 c32 0
52 -6 72 -23z"/>
<path d="M5300 5280 l0 -180 45 0 c38 0 45 3 45 20 l0 20 20 -20 c13 -13 33
-20 58 -20 41 1 60 12 87 53 36 56 16 180 -34 207 -33 17 -89 12 -111 -10
l-20 -20 0 65 0 65 -45 0 -45 0 0 -180z m174 8 c31 -43 10 -128 -31 -128 -45
0 -70 79 -43 131 14 26 55 24 74 -3z"/>
<path d="M6230 5280 l0 -180 40 0 40 0 0 138 1 137 34 -110 c52 -170 49 -165
89 -165 l35 0 42 133 c22 72 42 137 44 142 2 6 4 -54 4 -132 l1 -143 40 0 40
0 0 180 0 181 -67 -3 -66 -3 -14 -40 c-8 -22 -24 -78 -37 -124 l-23 -84 -17
72 c-10 40 -26 95 -35 124 l-18 52 -66 3 -67 3 0 -181z"/>
<path d="M8710 5280 l0 -180 40 0 39 0 3 58 3 57 60 5 c74 7 103 22 121 65 18
44 18 69 -2 111 -25 52 -58 64 -169 64 l-95 0 0 -180z m176 99 c8 -6 14 -23
14 -37 0 -39 -27 -62 -72 -62 l-38 0 0 53 c0 30 3 57 8 61 9 10 70 0 88 -15z"/>
<path d="M4141 5344 c-63 -52 -65 -152 -6 -211 30 -30 38 -33 95 -33 55 0 65
3 92 31 25 25 29 33 17 40 -19 12 -66 11 -74 -1 -12 -19 -63 -11 -79 12 -8 12
-13 25 -10 30 3 4 45 8 95 8 97 0 96 -1 79 62 -16 57 -60 88 -125 88 -43 0
-60 -5 -84 -26z m129 -54 c13 -24 4 -30 -47 -30 -37 0 -43 3 -43 20 0 39 71
46 90 10z"/>
<path d="M4425 5345 c-24 -24 -31 -57 -19 -90 8 -21 49 -41 101 -50 50 -8 63
-23 38 -42 -21 -14 -54 -9 -71 13 -7 9 -22 11 -47 7 -41 -6 -41 -6 -27 -34 17
-30 64 -49 124 -49 70 0 116 34 116 84 0 43 -23 63 -96 79 -39 9 -60 19 -62
30 -5 24 44 34 67 13 12 -11 27 -14 49 -10 39 8 41 26 6 53 -21 16 -41 21 -91
21 -55 0 -67 -4 -88 -25z"/>
<path d="M4739 5355 c-39 -21 -62 -78 -56 -138 4 -42 10 -56 41 -84 32 -29 42
-33 92 -33 51 0 59 3 91 35 41 41 39 59 -6 63 -25 3 -37 -2 -48 -17 -17 -25
-55 -27 -74 -4 -8 9 -14 35 -14 58 0 23 6 49 14 58 19 23 57 21 75 -4 12 -18
21 -20 50 -15 20 4 36 12 36 17 0 6 -15 26 -34 45 -30 30 -40 34 -87 34 -30
-1 -66 -7 -80 -15z"/>
<path d="M4990 5270 c0 -105 13 -151 45 -164 37 -14 79 -6 107 21 l28 27 0
-27 c0 -25 3 -27 40 -27 l40 0 0 135 0 135 -45 0 -44 0 -3 -97 -3 -98 -28 -3
c-48 -6 -57 11 -57 109 l0 89 -40 0 -40 0 0 -100z"/>
<path d="M5620 5235 l0 -135 45 0 45 0 0 89 c0 96 8 114 55 114 22 0 25 4 25
33 0 28 -4 34 -22 34 -12 0 -32 -10 -45 -22 l-23 -21 0 21 c0 19 -6 22 -40 22
l-40 0 0 -135z"/>
<path d="M5851 5344 c-39 -32 -39 -41 -1 -49 20 -4 37 -1 52 9 29 20 42 20 63
-1 16 -16 16 -17 -1 -30 -10 -7 -30 -13 -45 -13 -66 0 -108 -34 -109 -86 0
-63 90 -99 148 -58 20 14 22 14 22 0 0 -12 10 -16 40 -16 l40 0 0 106 c0 103
-1 106 -29 135 -26 26 -36 29 -89 29 -50 0 -66 -4 -91 -26z m129 -137 c0 -28
-32 -58 -58 -55 -37 4 -39 49 -2 59 40 11 60 10 60 -4z"/>
<path d="M6717 5338 l-32 -32 33 -9 c25 -8 40 -6 66 8 29 16 37 17 50 6 9 -8
16 -20 16 -27 0 -14 -14 -19 -84 -28 -52 -7 -80 -36 -80 -82 0 -26 7 -42 23
-55 29 -24 98 -25 123 -2 17 15 18 15 18 0 0 -13 9 -17 40 -17 l40 0 0 104 c0
57 -3 112 -6 121 -10 26 -60 45 -119 45 -50 0 -60 -4 -88 -32z m133 -143 c0
-31 -42 -55 -68 -38 -24 15 -21 35 8 50 40 20 60 16 60 -12z"/>
<path d="M6990 5235 l0 -135 45 0 45 0 0 135 0 135 -45 0 -45 0 0 -135z"/>
<path d="M7155 5345 c-30 -29 -33 -77 -6 -104 11 -11 45 -24 76 -31 51 -11 78
-31 61 -47 -13 -13 -67 -6 -79 10 -9 13 -21 15 -49 11 -35 -6 -36 -8 -25 -31
16 -35 57 -53 121 -53 47 0 61 4 87 28 41 36 42 77 5 109 -15 13 -35 23 -44
23 -35 0 -92 21 -92 34 0 28 50 34 75 10 12 -13 23 -14 53 -7 l37 9 -32 32
c-29 30 -36 32 -98 32 -57 0 -69 -3 -90 -25z"/>
<path d="M7579 5355 c-39 -21 -62 -78 -56 -138 4 -42 10 -56 41 -84 32 -29 42
-33 92 -33 51 0 59 3 91 35 41 41 39 59 -6 63 -25 3 -37 -2 -48 -17 -17 -25
-55 -27 -74 -4 -8 9 -14 35 -14 58 0 23 6 49 14 58 19 23 57 21 75 -4 12 -18
21 -20 50 -15 20 4 36 12 36 17 0 6 -15 26 -34 45 -30 30 -40 34 -87 34 -30
-1 -66 -7 -80 -15z"/>
<path d="M7878 5354 c-80 -43 -77 -196 4 -240 13 -8 47 -13 77 -14 47 0 57 4
86 33 59 59 57 159 -6 211 -24 21 -41 26 -82 26 -29 -1 -64 -7 -79 -16z m110
-56 c15 -15 16 -92 2 -119 -25 -47 -90 -6 -90 56 0 59 54 97 88 63z"/>
<path d="M8140 5235 l0 -135 40 0 40 0 0 95 c0 92 1 96 25 107 44 20 55 -1 55
-108 l0 -94 40 0 39 0 3 96 c2 79 6 99 21 108 12 8 22 8 35 0 14 -9 18 -29 20
-108 l3 -96 39 0 40 0 0 109 c0 94 -3 112 -21 135 -28 36 -95 37 -129 1 l-23
-24 -19 24 c-25 32 -79 34 -106 5 l-19 -21 -6 21 c-4 15 -13 20 -41 20 l-36 0
0 -135z"/>
<path d="M9040 5235 l0 -135 40 0 40 0 0 83 c0 97 12 121 59 119 29 -1 31 2
31 34 0 31 -3 34 -29 34 -20 0 -35 -8 -45 -22 l-16 -22 0 22 c0 19 -5 22 -40
22 l-40 0 0 -135z"/>
<path d="M9271 5344 c-63 -52 -65 -152 -6 -211 30 -30 38 -33 95 -33 55 0 65
3 92 31 25 25 29 33 17 40 -19 12 -66 11 -74 -1 -12 -19 -63 -11 -79 12 -8 12
-13 25 -10 30 3 4 45 8 95 8 97 0 96 -1 79 62 -16 57 -60 88 -125 88 -43 0
-60 -5 -84 -26z m129 -54 c13 -24 4 -30 -47 -30 -37 0 -43 3 -43 20 0 39 71
46 90 10z"/>
<path d="M9571 5344 c-63 -52 -65 -152 -6 -211 29 -29 40 -33 84 -33 29 0 64
6 79 14 31 16 58 58 48 75 -12 19 -70 13 -84 -9 -15 -24 -45 -26 -66 -4 -18
18 -21 85 -6 115 16 28 80 23 80 -7 0 -15 21 -18 58 -8 31 9 28 31 -9 65 -27
25 -39 29 -89 29 -48 0 -64 -5 -89 -26z"/>
<path d="M9830 5235 l0 -135 40 0 40 0 0 135 0 135 -40 0 -40 0 0 -135z"/>
<path d="M9995 5345 c-24 -24 -31 -57 -19 -90 8 -21 49 -41 101 -50 50 -8 63
-23 38 -42 -21 -14 -54 -9 -71 13 -7 9 -22 11 -47 7 -41 -6 -41 -6 -27 -34 17
-30 64 -49 124 -49 70 0 116 34 116 84 0 43 -23 63 -96 79 -39 9 -60 19 -62
30 -5 24 44 34 67 13 12 -11 27 -14 49 -10 39 8 41 26 6 53 -21 16 -41 21 -91
21 -55 0 -67 -4 -88 -25z"/>
<path d="M10285 5345 c-14 -13 -25 -29 -25 -34 0 -20 52 -24 81 -7 34 20 69
13 69 -14 0 -21 -19 -30 -63 -30 -18 0 -47 -9 -64 -20 -28 -17 -33 -25 -33
-60 0 -55 26 -80 84 -80 26 0 48 6 56 15 7 8 16 15 21 15 5 0 9 -7 9 -15 0
-11 11 -15 40 -15 l40 0 0 90 c0 98 -15 151 -48 169 -12 6 -48 11 -82 11 -51
0 -65 -4 -85 -25z m123 -152 c-4 -37 -50 -55 -75 -30 -26 26 1 49 65 56 9 1
12 -8 10 -26z"/>
<path d="M10591 5344 c-63 -52 -65 -152 -6 -211 29 -29 40 -33 84 -33 94 0
141 45 141 135 0 91 -43 135 -131 135 -47 0 -63 -5 -88 -26z m123 -56 c34 -48
9 -128 -39 -128 -29 0 -45 26 -45 75 0 20 5 45 10 56 14 26 55 24 74 -3z"/>
<path d="M10884 5336 c-3 -8 -4 -25 -2 -38 2 -18 10 -24 35 -26 39 -4 60 25
43 58 -13 24 -68 28 -76 6z"/>
<path d="M10884 5166 c-3 -8 -4 -25 -2 -38 2 -18 10 -24 35 -26 39 -4 60 25
43 58 -13 24 -68 28 -76 6z"/>
<path d="M4118 4870 c-19 -15 -21 -22 -12 -37 14 -23 57 -28 73 -9 16 19 9 41
-18 55 -15 8 -24 6 -43 -9z"/>
<path d="M4578 4870 c-19 -15 -21 -22 -12 -37 14 -23 57 -28 73 -9 16 19 9 41
-18 55 -15 8 -24 6 -43 -9z"/>
<path d="M6694 4851 c-53 -24 -80 -60 -93 -124 -12 -60 -4 -109 28 -160 55
-89 216 -90 271 -2 31 51 27 65 -20 65 -22 0 -40 -4 -40 -10 0 -20 -41 -50
-69 -50 -44 0 -81 37 -88 87 -11 85 20 133 87 133 31 0 43 -5 56 -25 13 -20
25 -25 56 -25 39 0 40 1 33 28 -14 57 -83 102 -155 102 -14 0 -43 -9 -66 -19z"/>
<path d="M7680 4857 c-46 -16 -84 -71 -75 -112 8 -45 44 -74 111 -91 67 -18
84 -29 84 -54 0 -21 -19 -30 -66 -30 -25 0 -38 6 -50 25 -13 20 -25 25 -56 25
-36 0 -39 -2 -33 -22 10 -34 39 -71 66 -85 13 -7 51 -13 84 -13 75 0 118 24
134 73 22 66 -19 122 -104 141 -57 13 -85 28 -85 47 0 39 67 52 100 19 21 -21
90 -28 90 -9 0 27 -37 70 -72 84 -45 18 -80 18 -128 2z"/>
<path d="M3740 4681 l0 -181 88 0 c114 0 166 24 200 90 41 82 18 194 -51 244
-23 17 -47 22 -133 24 l-104 4 0 -181z m196 86 c23 -20 27 -31 28 -79 1 -75
-20 -105 -78 -113 -25 -4 -49 -4 -55 0 -7 4 -11 47 -11 111 l0 104 44 0 c32 0
52 -6 72 -23z"/>
<path d="M6970 4680 l0 -180 125 0 125 0 0 35 0 35 -80 0 -80 0 0 40 0 40 75
0 75 0 0 35 0 35 -76 0 -75 0 3 38 3 37 78 3 77 3 0 29 0 30 -125 0 -125 0 0
-180z"/>
<path d="M7280 4680 l0 -180 40 0 39 0 3 58 3 57 60 5 c74 7 98 19 119 65 25
52 14 106 -30 145 -34 29 -38 30 -134 30 l-100 0 0 -180z m178 92 c32 -42 0
-92 -60 -92 l-38 0 0 53 c0 30 3 57 7 61 12 12 77 -4 91 -22z"/>
<path d="M4720 4805 c0 -28 -4 -35 -20 -35 -16 0 -20 -7 -20 -30 0 -23 4 -30
20 -30 18 0 20 -7 20 -85 0 -104 14 -125 85 -125 43 0 45 1 45 29 0 23 -5 30
-22 33 -21 3 -23 9 -26 76 -3 71 -3 72 23 72 21 0 25 5 25 30 0 25 -4 30 -25
30 -22 0 -25 4 -25 35 0 34 -1 35 -40 35 -39 0 -40 -1 -40 -35z"/>
<path d="M4100 4635 l0 -135 45 0 45 0 0 135 0 135 -45 0 -45 0 0 -135z"/>
<path d="M4277 4750 c-54 -42 -57 -162 -6 -216 31 -33 111 -34 133 -2 16 22
16 21 16 -18 0 -22 -5 -45 -12 -52 -16 -16 -63 -15 -80 2 -19 18 -80 9 -76
-12 6 -32 57 -57 117 -57 116 0 141 42 141 240 l0 135 -45 0 c-38 0 -45 -3
-45 -20 l0 -20 -20 20 c-27 27 -89 27 -123 0z m127 -56 c19 -18 22 -94 4 -112
-19 -19 -66 -15 -78 7 -37 69 24 155 74 105z"/>
<path d="M4560 4635 l0 -135 45 0 45 0 0 135 0 135 -45 0 -45 0 0 -135z"/>
<path d="M4939 4755 c-77 -42 -76 -200 2 -240 59 -31 164 -11 189 34 7 15 6
20 -6 25 -24 9 -62 7 -69 -4 -11 -18 -73 -12 -85 9 -20 37 -13 41 80 41 l90 0
0 30 c0 38 -23 84 -52 104 -28 20 -114 20 -149 1z m113 -59 c18 -26 7 -36 -35
-36 -49 0 -58 5 -50 27 12 30 67 36 85 9z"/>
<path d="M5324 4747 c-32 -28 -37 -76 -9 -107 10 -11 42 -24 76 -31 61 -12 81
-32 49 -49 -27 -14 -37 -13 -59 9 -15 15 -28 19 -55 14 -44 -7 -45 -23 -5 -57
60 -51 199 -26 215 38 13 55 -12 81 -101 100 -39 9 -50 16 -50 31 0 26 40 32
64 11 12 -11 27 -14 49 -10 39 8 40 18 6 49 -23 21 -37 25 -90 25 -52 0 -68
-4 -90 -23z"/>
<path d="M5628 4747 c-36 -31 -48 -58 -48 -112 0 -88 47 -135 135 -135 69 0
129 39 109 71 -7 12 -61 11 -69 -1 -9 -14 -68 -13 -83 2 -7 7 -12 20 -12 30 0
16 10 18 90 18 90 0 90 0 90 25 0 38 -25 90 -51 109 -36 25 -127 22 -161 -7z
m112 -45 c31 -25 18 -42 -30 -42 -48 0 -61 17 -30 42 12 10 26 18 30 18 4 0
18 -8 30 -18z"/>
<path d="M5890 4670 c0 -105 13 -151 45 -164 37 -14 79 -6 107 21 l28 27 0
-27 c0 -25 3 -27 40 -27 l40 0 0 135 0 135 -45 0 -44 0 -3 -97 -3 -98 -28 -3
c-48 -6 -57 11 -57 109 l0 89 -40 0 -40 0 0 -100z"/>
<path d="M6225 4745 c-30 -29 -33 -77 -6 -104 11 -11 45 -24 76 -31 51 -11 78
-31 61 -47 -13 -13 -67 -6 -79 10 -9 13 -21 15 -49 11 -35 -6 -36 -8 -25 -31
16 -35 57 -53 121 -53 47 0 61 4 87 28 41 36 42 77 5 109 -15 13 -35 23 -44
23 -35 0 -92 21 -92 34 0 28 50 34 75 10 12 -13 23 -14 53 -7 l37 9 -32 32
c-29 30 -36 32 -98 32 -57 0 -69 -3 -90 -25z"/>
<path d="M4355 4277 c-13 -10 -16 -21 -11 -41 6 -24 11 -27 39 -24 25 2 33 8
35 27 3 15 -3 30 -14 38 -22 16 -26 16 -49 0z"/>
<path d="M6980 4195 l0 -65 -20 20 c-31 31 -94 27 -129 -8 -51 -50 -48 -165 4
-218 32 -32 90 -33 122 -2 l23 21 0 -21 c0 -19 6 -22 40 -22 l40 0 0 180 0
180 -40 0 -40 0 0 -65z m-16 -101 c21 -21 21 -92 -1 -116 -35 -39 -83 -5 -83
61 0 59 49 91 84 55z"/>
<path d="M3723 4156 c3 -7 25 -68 49 -135 l43 -122 49 3 c46 3 50 5 61 38 7
19 29 79 49 133 l35 97 -43 0 -43 0 -28 -97 c-15 -54 -28 -99 -29 -100 -2 -2
-15 42 -31 97 l-28 100 -45 0 c-33 0 -43 -3 -39 -14z"/>
<path d="M4089 4155 c-77 -42 -76 -200 2 -240 59 -31 164 -11 189 34 7 15 6
20 -6 25 -24 9 -62 7 -69 -4 -11 -18 -73 -12 -85 9 -20 37 -13 41 80 41 l90 0
0 30 c0 38 -23 84 -52 104 -28 20 -114 20 -149 1z m113 -59 c18 -26 7 -36 -35
-36 -49 0 -58 5 -50 27 12 30 67 36 85 9z"/>
<path d="M4340 4019 c0 -142 -1 -151 -20 -156 -14 -4 -20 -14 -20 -35 0 -30 1
-31 42 -25 73 10 78 24 78 208 l0 159 -40 0 -40 0 0 -151z"/>
<path d="M4511 4144 c-39 -32 -39 -41 -1 -49 20 -4 37 -1 52 9 29 20 42 20 63
-1 16 -16 16 -17 -1 -30 -10 -7 -30 -13 -45 -13 -66 0 -108 -34 -109 -86 0
-63 90 -99 148 -58 20 14 22 14 22 0 0 -12 10 -16 40 -16 l40 0 0 106 c0 103
-1 106 -29 135 -26 26 -36 29 -89 29 -50 0 -66 -4 -91 -26z m129 -137 c0 -28
-32 -58 -58 -55 -37 4 -39 49 -2 59 40 11 60 10 60 -4z"/>
<path d="M4905 4145 c-30 -29 -33 -77 -6 -104 11 -11 45 -24 76 -31 51 -11 78
-31 61 -47 -13 -13 -67 -6 -79 10 -9 13 -21 15 -49 11 -35 -6 -36 -8 -25 -31
16 -35 57 -53 121 -53 47 0 61 4 87 28 41 36 42 77 5 109 -15 13 -35 23 -44
23 -35 0 -92 21 -92 34 0 28 50 34 75 10 12 -13 23 -14 53 -7 l37 9 -32 32
c-29 30 -36 32 -98 32 -57 0 -69 -3 -90 -25z"/>
<path d="M5211 4144 c-63 -52 -65 -152 -6 -211 30 -30 38 -33 95 -33 55 0 65
3 92 31 25 25 29 33 17 40 -19 12 -66 11 -74 -1 -12 -19 -63 -11 -79 12 -8 12
-13 25 -10 30 3 4 45 8 95 8 97 0 96 -1 79 62 -16 57 -60 88 -125 88 -43 0
-60 -5 -84 -26z m129 -54 c13 -24 4 -30 -47 -30 -37 0 -43 3 -43 20 0 39 71
46 90 10z"/>
<path d="M5472 4059 c3 -107 4 -112 31 -135 38 -32 90 -32 122 1 l25 24 0 -24
c0 -22 4 -25 40 -25 l40 0 0 135 0 135 -40 0 -40 0 0 -89 c0 -98 -9 -115 -57
-109 l-28 3 -3 98 -3 97 -45 0 -46 0 4 -111z"/>
<path d="M5814 4147 c-32 -28 -37 -76 -9 -107 10 -11 42 -24 76 -31 61 -12 81
-32 49 -49 -27 -14 -37 -13 -59 9 -15 15 -28 19 -55 14 -44 -7 -45 -23 -5 -57
60 -51 199 -26 215 38 13 55 -12 81 -101 100 -39 9 -50 16 -50 31 0 26 40 32
64 11 12 -11 27 -14 49 -10 39 8 40 18 6 49 -23 21 -37 25 -90 25 -52 0 -68
-4 -90 -23z"/>
<path d="M6221 4144 c-61 -51 -64 -153 -5 -211 29 -30 38 -33 93 -33 53 0 65
4 93 30 28 25 31 31 18 40 -19 13 -57 13 -65 0 -9 -14 -68 -13 -83 2 -7 7 -12
20 -12 30 0 16 10 18 90 18 86 0 90 1 90 22 0 36 -38 104 -66 116 -14 7 -47
12 -74 12 -37 0 -55 -6 -79 -26z m129 -54 c13 -24 4 -30 -47 -30 -48 0 -58 18
-22 43 24 17 56 11 69 -13z"/>
<path d="M6490 4035 l0 -135 40 0 40 0 0 88 c0 76 3 91 20 107 17 15 24 16 45
7 24 -11 25 -15 25 -107 l0 -95 46 0 46 0 -4 109 c-3 100 -5 112 -27 135 -32
34 -94 36 -128 4 l-23 -21 0 21 c0 19 -6 22 -40 22 l-40 0 0 -135z"/>
<path d="M7161 4144 c-63 -52 -65 -152 -6 -211 30 -30 38 -33 95 -33 55 0 65
3 92 31 25 25 29 33 17 40 -19 12 -66 11 -74 -1 -12 -19 -63 -11 -79 12 -8 12
-13 25 -10 30 3 4 45 8 95 8 97 0 96 -1 79 62 -16 57 -60 88 -125 88 -43 0
-60 -5 -84 -26z m129 -54 c13 -24 4 -30 -47 -30 -37 0 -43 3 -43 20 0 39 71
46 90 10z"/>
<path d="M7420 4035 l0 -135 45 0 45 0 0 89 c0 96 8 114 55 114 22 0 25 4 25
33 0 28 -4 34 -22 34 -12 0 -32 -10 -45 -22 l-23 -21 0 21 c0 19 -6 22 -40 22
l-40 0 0 -135z"/>
<path d="M7669 4155 c-77 -42 -76 -200 2 -240 59 -31 164 -11 189 34 7 15 6
20 -6 25 -24 9 -62 7 -69 -4 -11 -18 -73 -12 -85 9 -20 37 -13 41 80 41 l90 0
0 30 c0 38 -23 84 -52 104 -28 20 -114 20 -149 1z m113 -59 c18 -26 7 -36 -35
-36 -49 0 -58 5 -50 27 12 30 67 36 85 9z"/>
<path d="M7969 4155 c-39 -21 -62 -78 -56 -138 4 -42 10 -56 41 -84 19 -18 45
-33 57 -33 16 0 19 -4 14 -19 -4 -15 -1 -20 15 -23 31 -5 29 -23 -2 -26 -16
-2 -28 -9 -28 -18 0 -23 77 -19 90 5 13 25 4 48 -21 56 -26 8 -24 25 2 25 25
0 93 64 87 82 -3 7 -19 14 -37 16 -25 3 -37 -2 -48 -17 -17 -25 -55 -27 -74
-4 -8 9 -14 35 -14 58 0 23 6 49 14 58 19 23 57 21 75 -4 12 -18 21 -20 50
-15 20 4 36 12 36 17 0 6 -15 26 -34 45 -30 30 -40 34 -87 34 -30 -1 -66 -7
-80 -15z"/>
<path d="M8268 4154 c-80 -43 -77 -196 4 -240 13 -8 47 -13 77 -14 47 0 57 4
86 33 59 59 57 159 -6 211 -24 21 -41 26 -82 26 -29 -1 -64 -7 -79 -16z m110
-56 c15 -15 16 -92 2 -119 -25 -47 -90 -6 -90 56 0 59 54 97 88 63z"/>
<path d="M8549 4141 c-16 -16 -29 -39 -29 -50 0 -35 41 -69 100 -83 36 -9 56
-19 58 -30 5 -27 -36 -33 -69 -9 -20 15 -36 19 -58 15 -39 -8 -39 -25 0 -58
57 -49 187 -29 210 32 22 57 -4 86 -96 106 -34 8 -51 17 -53 29 -5 25 27 33
60 14 18 -10 39 -14 58 -10 33 6 35 10 17 34 -21 28 -54 39 -112 39 -49 0 -60
-4 -86 -29z"/>
<path d="M8834 3966 c-3 -8 -4 -25 -2 -38 2 -18 10 -24 35 -26 39 -4 60 25 43
58 -13 24 -68 28 -76 6z"/>
<path d="M14110 3489 c-123 -24 -235 -115 -293 -237 -30 -63 -32 -74 -32 -177
1 -90 5 -120 24 -168 45 -115 132 -194 269 -245 122 -45 393 -41 435 6 15 16
37 112 37 159 0 32 -16 29 -25 -4 -10 -43 -43 -82 -88 -105 -62 -32 -193 -32
-262 0 -112 51 -174 116 -214 225 -29 80 -30 233 -1 311 32 83 71 130 137 162
52 26 68 29 158 29 87 -1 108 -4 157 -27 61 -28 93 -67 104 -125 3 -18 10 -33
14 -33 7 0 22 202 15 208 -2 2 -38 10 -81 17 -87 16 -284 18 -354 4z"/>
<path d="M12210 3480 c0 -5 13 -10 29 -10 16 0 39 -9 52 -19 24 -19 24 -19 29
-308 5 -274 7 -290 29 -340 30 -68 92 -125 167 -152 49 -19 75 -22 154 -19 81
3 103 7 153 32 98 50 146 122 166 246 6 36 11 167 11 293 0 214 1 228 20 247
11 11 31 20 45 20 14 0 25 5 25 10 0 6 -55 10 -145 10 -140 0 -187 -11 -105
-24 24 -4 43 -14 50 -25 14 -27 13 -525 -1 -591 -28 -130 -181 -199 -306 -139
-106 51 -123 116 -123 461 0 245 1 259 20 278 11 11 32 20 46 20 14 0 23 4 19
10 -4 6 -72 10 -171 10 -103 0 -164 -4 -164 -10z"/>
<path d="M13155 3480 c-4 -6 7 -10 25 -10 20 0 40 -9 56 -25 l25 -25 -3 -359
c-3 -386 -3 -387 -56 -393 -108 -12 157 -28 309 -19 5 1 7 6 4 11 -3 6 -23 10
-44 10 -62 0 -66 10 -69 217 l-4 183 87 0 c103 0 140 -15 150 -61 11 -48 22
-22 28 64 5 74 2 87 -19 68 -5 -5 -61 -11 -124 -13 l-115 -3 0 150 0 150 106
0 c91 0 110 -3 128 -19 12 -11 21 -29 21 -42 0 -13 4 -25 9 -29 10 -6 17 24
24 108 l5 47 -269 0 c-168 0 -270 -4 -274 -10z"/>
</g>
</svg>
